<svg width="621" height="348" viewBox="0 0 621 348" fill="none" xmlns="http://www.w3.org/2000/svg">
  <path fill-rule="evenodd" clip-rule="evenodd" d="M152.955 44.1605H128.702C132.681 30.379 149.635 30.5175 152.955 44.1605Z" fill="white"/>
  <path fill-rule="evenodd" clip-rule="evenodd" d="M411.948 44.9684C415.394 24.6539 443.486 22.1607 443.579 48.0387C449.755 40.1668 467.936 39.555 467.936 55.0449H392.044C391.396 41.6557 401.967 36.7733 411.948 44.9684Z" fill="white"/>
  <path fill-rule="evenodd" clip-rule="evenodd" d="M384.503 55.0451H365.108C363.767 42.1177 382.341 42.9834 384.503 55.0451Z" fill="white"/>
  <path fill-rule="evenodd" clip-rule="evenodd" d="M232.929 15.801C227.898 -5.62157 202.269 -2.20503 201.297 18.8713C195.122 10.9994 181.313 10.7455 178.814 25.8775H253.006C253.654 12.4884 242.909 7.60597 232.929 15.801Z" fill="white"/>
  <path d="M494.938 319.767C494.938 320.494 494.348 321.072 493.631 321.072C492.903 321.072 492.325 320.483 492.325 319.767V312.646H467.482V319.767C467.482 320.494 466.892 321.072 466.175 321.072C465.447 321.072 464.868 320.483 464.868 319.767V312.646H461.283V310.026H464.868V307.89H461.283V305.27H464.868V303.135H461.283V300.515H466.187H493.643H498.547V303.135H494.961V305.27H498.547V307.89H494.961V310.026H498.547V312.646H494.961V319.767H494.938ZM467.482 303.135V305.27H492.325V303.135H467.482ZM467.482 307.89V310.026H492.325V307.89H467.482Z" fill="#432D61"/>
  <path fill-rule="evenodd" clip-rule="evenodd" d="M488.865 242.491C504.108 242.491 516.46 254.819 516.46 270.032C516.46 285.244 504.108 297.572 488.865 297.572C473.634 297.572 461.271 285.244 461.271 270.032C461.271 254.819 473.622 242.491 488.865 242.491Z" fill="#98D7DA"/>
  <path fill-rule="evenodd" clip-rule="evenodd" d="M485.905 245.377C497.575 245.377 507.035 254.819 507.035 266.465C507.035 278.111 497.575 287.553 485.905 287.553C474.236 287.553 464.775 278.111 464.775 266.465C464.775 254.819 474.236 245.377 485.905 245.377Z" fill="#F2FCFC"/>
  <path d="M488.867 241.187C496.847 241.187 504.075 244.419 509.302 249.636C514.53 254.853 517.768 262.067 517.768 270.031C517.768 277.996 514.53 285.21 509.302 290.427C504.364 295.355 497.633 298.518 490.173 298.841V319.767C490.173 320.495 489.584 321.072 488.867 321.072C488.138 321.072 487.56 320.483 487.56 319.767V298.841C480.1 298.506 473.381 295.355 468.431 290.427C463.203 285.21 459.965 277.996 459.965 270.031C459.965 262.067 463.203 254.853 468.431 249.636C473.658 244.407 480.875 241.187 488.867 241.187ZM493.782 273.667C494.291 273.159 495.123 273.159 495.632 273.667C496.141 274.175 496.141 275.006 495.632 275.514L490.162 280.974V296.221C496.893 295.886 502.965 293.035 507.429 288.568C512.182 283.824 515.12 277.268 515.12 270.02C515.12 262.771 512.182 256.215 507.429 251.471C502.676 246.727 496.106 243.796 488.843 243.796C481.592 243.796 475.023 246.727 470.258 251.471C465.505 256.215 462.555 262.771 462.555 270.02C462.555 277.268 465.493 283.824 470.258 288.568C474.722 293.024 480.794 295.886 487.525 296.221V289.642L477.544 279.681C477.035 279.173 477.035 278.342 477.544 277.834C478.053 277.326 478.886 277.326 479.395 277.834L487.525 285.948V270.031C487.525 269.304 488.115 268.727 488.832 268.727C489.56 268.727 490.139 269.316 490.139 270.031V277.28L493.782 273.667Z" fill="#432D61"/>
  <path fill-rule="evenodd" clip-rule="evenodd" d="M189.845 242.491C205.076 242.491 217.44 254.819 217.44 270.032C217.44 285.233 205.088 297.572 189.845 297.572C174.602 297.572 162.25 285.244 162.25 270.032C162.25 254.819 174.613 242.491 189.845 242.491Z" fill="#98D7DA"/>
  <path fill-rule="evenodd" clip-rule="evenodd" d="M186.895 245.377C198.565 245.377 208.025 254.819 208.025 266.465C208.025 278.111 198.565 287.553 186.895 287.553C175.226 287.553 165.766 278.111 165.766 266.465C165.766 254.819 175.226 245.377 186.895 245.377Z" fill="#F2FCFC"/>
  <path d="M194.772 273.667C195.281 273.159 196.113 273.159 196.622 273.667C197.131 274.175 197.131 275.006 196.622 275.514L191.152 280.974V296.221C197.883 295.886 203.955 293.035 208.419 288.568C213.172 283.824 216.11 277.268 216.11 270.02C216.11 262.783 213.172 256.215 208.419 251.471C203.666 246.727 197.097 243.784 189.834 243.784C182.582 243.784 176.001 246.716 171.248 251.471C166.495 256.215 163.546 262.771 163.546 270.02C163.546 277.257 166.483 283.824 171.248 288.568C175.712 293.024 181.784 295.886 188.515 296.221V289.642L178.534 279.681C178.025 279.173 178.025 278.342 178.534 277.834C179.043 277.326 179.876 277.326 180.385 277.834L188.515 285.948V270.031C188.515 269.304 189.105 268.727 189.822 268.727C190.551 268.727 191.129 269.316 191.129 270.031V277.28L194.772 273.667ZM191.152 298.841V319.767C191.152 320.495 190.562 321.072 189.845 321.072C189.116 321.072 188.538 320.483 188.538 319.767V298.841C181.079 298.506 174.359 295.355 169.409 290.427C164.182 285.21 160.943 277.996 160.943 270.031C160.943 262.067 164.182 254.853 169.409 249.636C174.637 244.419 181.865 241.187 189.845 241.187C197.825 241.187 205.054 244.419 210.281 249.636C215.509 254.853 218.747 262.067 218.747 270.031C218.747 277.996 215.509 285.21 210.281 290.427C205.343 295.355 198.612 298.506 191.152 298.841Z" fill="#432D61"/>
  <path fill-rule="evenodd" clip-rule="evenodd" d="M302.946 104.139H293.566C285.517 99.1643 275.513 88.5222 275.513 76.7605C275.513 61.6401 287.795 49.3821 302.946 49.3821C318.096 49.3821 330.379 61.6401 330.379 76.7605C330.379 88.5222 320.375 99.1643 312.325 104.139H302.946Z" fill="#98D7DA"/>
  <path fill-rule="evenodd" clip-rule="evenodd" d="M302.946 104.139H295.347C288.836 99.1643 280.729 88.5222 280.729 76.7605C280.729 61.6401 290.675 49.3821 302.946 49.3821C315.216 49.3821 325.162 61.6401 325.162 76.7605C325.162 88.5222 317.055 99.1643 310.544 104.139H302.946Z" fill="white"/>
  <path fill-rule="evenodd" clip-rule="evenodd" d="M302.945 104.139H297.579C292.976 99.1643 287.263 88.5222 287.263 76.7605C287.263 61.6401 294.283 49.3821 302.945 49.3821C311.608 49.3821 318.628 61.6401 318.628 76.7605C318.628 88.5222 312.903 99.1643 308.312 104.139H302.945Z" fill="#98D7DA"/>
  <path fill-rule="evenodd" clip-rule="evenodd" d="M309.537 119.525V127.951C309.537 128.851 308.808 129.578 307.906 129.578H297.983C297.081 129.578 296.353 128.851 296.353 127.951V119.525H309.537Z" fill="white"/>
  <path fill-rule="evenodd" clip-rule="evenodd" d="M296.353 115.45H309.537C310.011 115.45 310.405 115.843 310.405 116.316V118.659C310.405 119.132 310.011 119.525 309.537 119.525H296.353C295.879 119.525 295.485 119.132 295.485 118.659V116.316C295.485 115.843 295.879 115.45 296.353 115.45Z" fill="white"/>
  <path fill-rule="evenodd" clip-rule="evenodd" d="M293.555 104.139H312.325V107.348C312.325 107.821 311.932 108.213 311.458 108.213H294.434C293.959 108.213 293.566 107.821 293.566 107.348V104.139H293.555Z" fill="white"/>
  <path fill-rule="evenodd" clip-rule="evenodd" d="M302.945 104.139H300.771C298.909 99.1643 296.584 88.5222 296.584 76.7605C296.584 61.6401 299.429 49.3821 302.945 49.3821C306.461 49.3821 309.306 61.6401 309.306 76.7605C309.306 88.5222 306.981 99.1643 305.119 104.139H302.945Z" fill="white"/>
  <path fill-rule="evenodd" clip-rule="evenodd" d="M309.537 119.525V127.951C309.537 128.851 308.808 129.578 307.906 129.578H304.367C305.269 129.578 305.998 128.851 305.998 127.951V119.525H306.021H309.537Z" fill="#98D7DA"/>
  <path fill-rule="evenodd" clip-rule="evenodd" d="M305.998 115.45H309.537C310.011 115.45 310.404 115.843 310.404 116.316V118.659C310.404 119.132 310.011 119.525 309.537 119.525H305.998C306.472 119.525 306.865 119.132 306.865 118.659V116.316C306.865 115.843 306.472 115.45 305.998 115.45Z" fill="#98D7DA"/>
  <path fill-rule="evenodd" clip-rule="evenodd" d="M308.785 104.139H312.324V107.348C312.324 107.821 311.931 108.213 311.457 108.213H307.918C308.392 108.213 308.785 107.821 308.785 107.348V104.139Z" fill="#98D7DA"/>
  <path d="M302.945 105.455H294.872V106.909H299.406H306.484H311.017V105.455H302.945ZM297.359 114.146H298.087V109.529H296.121L297.359 114.146ZM300.713 114.146H305.165V109.529H300.713V114.146ZM307.791 114.146H308.531L309.757 109.529H307.791V114.146ZM311.064 114.781C311.11 114.827 311.145 114.862 311.179 114.908C311.515 115.289 311.711 115.785 311.711 116.328V118.671C311.711 119.271 311.469 119.814 311.075 120.206C311.006 120.275 310.925 120.345 310.844 120.402V127.962C310.844 128.77 310.509 129.509 309.977 130.04C309.942 130.075 309.907 130.098 309.884 130.132C309.364 130.617 308.658 130.906 307.906 130.906H297.983C297.174 130.906 296.445 130.571 295.913 130.04C295.381 129.509 295.057 128.77 295.057 127.974V120.414C294.976 120.356 294.895 120.287 294.826 120.218C294.433 119.825 294.19 119.283 294.19 118.682V116.339C294.19 115.751 294.433 115.197 294.826 114.804L293.346 109.252C293.184 109.16 293.022 109.045 292.895 108.906C292.501 108.514 292.259 107.971 292.259 107.371V104.878C287.794 101.992 282.844 97.4906 279.271 92.0657C276.252 87.495 274.205 82.2663 274.205 76.7837C274.205 68.8656 277.42 61.6862 282.625 56.4922C287.829 51.2981 295.011 48.0894 302.956 48.0894C310.89 48.0894 318.084 51.2981 323.288 56.4922C328.493 61.6862 331.708 68.8541 331.708 76.7837C331.708 82.2663 329.661 87.495 326.642 92.0657C323.069 97.4906 318.119 101.992 313.654 104.878V107.371C313.654 107.971 313.411 108.514 313.007 108.906C312.868 109.045 312.718 109.16 312.544 109.252L311.064 114.781ZM308.219 120.841H297.66V127.962C297.66 128.055 297.694 128.136 297.752 128.182C297.81 128.239 297.891 128.274 297.972 128.274H307.895C307.964 128.274 308.034 128.251 308.091 128.205L308.115 128.182C308.172 128.124 308.207 128.043 308.207 127.962V120.841H308.219ZM309.086 116.766H306.472H299.394H296.781V118.221H309.075V116.766H309.086ZM293.924 102.835H302.945H311.966C316.233 100.134 321.021 95.817 324.456 90.6114C327.209 86.4331 329.083 81.6892 329.083 76.7606C329.083 69.5581 326.156 63.0367 321.426 58.3274C316.696 53.6066 310.173 50.6864 302.956 50.6864C295.74 50.6864 289.205 53.6066 284.487 58.3274C279.756 63.0482 276.83 69.5581 276.83 76.7606C276.83 81.6892 278.704 86.4331 281.457 90.6114C284.868 95.817 289.656 100.122 293.924 102.835Z" fill="#432D61"/>
  <path fill-rule="evenodd" clip-rule="evenodd" d="M606.89 112.998V105.045H616.593V147.313V155.266H618.906V161.949H616.593V256.769H618.906V263.452H616.593V319.768H503.149V263.452H500.824V256.769H503.149V161.949H500.824V155.266H503.149V147.313V105.045H512.841V112.998H606.89Z" fill="white"/>
  <path d="M596.447 155.266C596.447 155.993 595.857 156.57 595.14 156.57C594.423 156.57 593.833 155.981 593.833 155.266V112.998C593.833 112.27 594.423 111.693 595.14 111.693C595.857 111.693 596.447 112.282 596.447 112.998V155.266ZM525.91 155.266C525.91 155.993 525.32 156.57 524.603 156.57C523.874 156.57 523.296 155.981 523.296 155.266V112.998C523.296 112.27 523.886 111.693 524.603 111.693C525.331 111.693 525.91 112.282 525.91 112.998V155.266ZM537.672 146.332C537.672 147.059 537.082 147.636 536.365 147.636C535.636 147.636 535.058 147.048 535.058 146.332V112.998C535.058 112.27 535.648 111.693 536.365 111.693C537.093 111.693 537.672 112.282 537.672 112.998V146.332ZM549.422 141.034C549.422 141.761 548.832 142.338 548.115 142.338C547.386 142.338 546.808 141.75 546.808 141.034V112.998C546.808 112.27 547.398 111.693 548.115 111.693C548.844 111.693 549.422 112.282 549.422 112.998V141.034ZM561.184 135.736C561.184 136.463 560.594 137.04 559.877 137.04C559.16 137.04 558.57 136.452 558.57 135.736V112.998C558.57 112.27 559.16 111.693 559.877 111.693C560.594 111.693 561.184 112.282 561.184 112.998V135.736ZM572.934 141.034C572.934 141.761 572.344 142.338 571.627 142.338C570.91 142.338 570.321 141.75 570.321 141.034V112.998C570.321 112.27 570.91 111.693 571.627 111.693C572.344 111.693 572.934 112.282 572.934 112.998V141.034ZM584.696 146.332C584.696 147.059 584.106 147.636 583.389 147.636C582.661 147.636 582.082 147.048 582.082 146.332V112.998C582.082 112.27 582.672 111.693 583.389 111.693C584.118 111.693 584.696 112.282 584.696 112.998V146.332Z" fill="#98D7DA"/>
  <path fill-rule="evenodd" clip-rule="evenodd" d="M503.149 166.37H616.594V170.513H503.149V166.37Z" fill="#98D7DA"/>
  <path fill-rule="evenodd" clip-rule="evenodd" d="M503.149 263.452H616.594V267.596H503.149V263.452Z" fill="#98D7DA"/>
  <path fill-rule="evenodd" clip-rule="evenodd" d="M556.407 177.843H567.175V200.789H556.407V177.843Z" fill="#98D7DA"/>
  <path fill-rule="evenodd" clip-rule="evenodd" d="M523.411 177.843H534.178V200.789H523.411V177.843Z" fill="#98D7DA"/>
  <path fill-rule="evenodd" clip-rule="evenodd" d="M589.403 228.341H600.171V251.298H589.403V228.341Z" fill="#98D7DA"/>
  <path fill-rule="evenodd" clip-rule="evenodd" d="M556.407 228.341H567.175V251.298H556.407V228.341Z" fill="#98D7DA"/>
  <path fill-rule="evenodd" clip-rule="evenodd" d="M523.411 228.341H534.178V251.298H523.411V228.341Z" fill="#98D7DA"/>
  <path fill-rule="evenodd" clip-rule="evenodd" d="M589.403 278.85H600.171V314.954H589.403V278.85Z" fill="#98D7DA"/>
  <path fill-rule="evenodd" clip-rule="evenodd" d="M523.411 278.85H567.174V314.954H523.411V278.85Z" fill="#98D7DA"/>
  <path fill-rule="evenodd" clip-rule="evenodd" d="M589.403 177.843H600.171V200.789H589.403V177.843Z" fill="#98D7DA"/>
  <path fill-rule="evenodd" clip-rule="evenodd" d="M525.517 281.32C525.54 282.959 524.164 284.298 522.545 284.298C520.902 284.298 519.572 282.97 519.572 281.331V273.633H525.528V281.32H525.517Z" fill="white"/>
  <path fill-rule="evenodd" clip-rule="evenodd" d="M531.473 281.32C531.496 282.959 530.12 284.298 528.501 284.298C526.858 284.298 525.528 282.97 525.528 281.331V273.633H531.484V281.32H531.473Z" fill="#98D7DA"/>
  <path fill-rule="evenodd" clip-rule="evenodd" d="M537.417 281.32C537.44 282.959 536.064 284.298 534.445 284.298C532.803 284.298 531.473 282.97 531.473 281.331V273.633H537.429V281.32H537.417Z" fill="white"/>
  <path fill-rule="evenodd" clip-rule="evenodd" d="M543.373 281.32C543.396 282.959 542.02 284.298 540.401 284.298C538.759 284.298 537.429 282.97 537.429 281.331V273.633H543.385V281.32H543.373Z" fill="#98D7DA"/>
  <path fill-rule="evenodd" clip-rule="evenodd" d="M549.318 281.32C549.341 282.959 547.964 284.298 546.345 284.298C544.703 284.298 543.373 282.97 543.373 281.331V273.633H549.329V281.32H549.318Z" fill="white"/>
  <path fill-rule="evenodd" clip-rule="evenodd" d="M555.275 281.32C555.298 282.959 553.922 284.298 552.302 284.298C550.66 284.298 549.33 282.97 549.33 281.331V273.633H555.286V281.32H555.275Z" fill="#98D7DA"/>
  <path fill-rule="evenodd" clip-rule="evenodd" d="M561.218 281.32C561.241 282.959 559.865 284.298 558.246 284.298C556.603 284.298 555.273 282.97 555.273 281.331V273.633H561.23V281.32H561.218Z" fill="white"/>
  <path fill-rule="evenodd" clip-rule="evenodd" d="M567.175 281.32C567.198 282.959 565.822 284.298 564.203 284.298C562.56 284.298 561.23 282.97 561.23 281.331V273.633H567.187V281.32H567.175Z" fill="#98D7DA"/>
  <path d="M530.154 273.621C530.154 272.894 530.744 272.317 531.461 272.317C532.178 272.317 532.768 272.905 532.768 273.621V281.32V281.331V281.354V281.366C532.779 281.805 532.965 282.209 533.254 282.497C533.554 282.797 533.971 282.982 534.433 282.982H534.456C534.896 282.97 535.312 282.786 535.613 282.486C535.914 282.197 536.087 281.793 536.087 281.343V281.308V281.297V273.598C536.087 272.871 536.677 272.294 537.394 272.294C538.123 272.294 538.701 272.882 538.701 273.598V281.297V281.308C538.701 281.77 538.886 282.185 539.187 282.486C539.487 282.786 539.904 282.97 540.366 282.97H540.389C540.829 282.959 541.245 282.774 541.546 282.474C541.847 282.185 542.032 281.781 542.032 281.331V281.297V281.285V273.586C542.032 272.859 542.622 272.282 543.339 272.282C544.056 272.282 544.646 272.871 544.646 273.586V281.274V281.285C544.646 281.747 544.831 282.162 545.131 282.462C545.432 282.763 545.848 282.947 546.311 282.947H546.334C546.774 282.936 547.19 282.751 547.491 282.451C547.791 282.162 547.965 281.758 547.965 281.308V281.285V281.274V273.575C547.965 272.848 548.555 272.271 549.272 272.271C550 272.271 550.579 272.859 550.579 273.575V281.262V281.274C550.579 281.712 550.74 282.105 551.018 282.405L551.064 282.451C551.365 282.751 551.781 282.936 552.244 282.936H552.267C552.707 282.924 553.123 282.74 553.424 282.439C553.724 282.151 553.909 281.747 553.909 281.297V281.274V281.262V273.563C553.909 272.836 554.499 272.259 555.216 272.259C555.945 272.259 556.523 272.848 556.523 273.563V281.251V281.262C556.523 281.701 556.685 282.093 556.963 282.393L557.009 282.439C557.31 282.74 557.726 282.924 558.189 282.924H558.212C558.663 282.913 559.067 282.728 559.368 282.428C559.657 282.139 559.842 281.747 559.842 281.308V281.285V281.251V281.239V273.54C559.842 272.813 560.432 272.236 561.149 272.236C561.878 272.236 562.456 272.825 562.456 273.54V281.239V281.251C562.456 281.689 562.618 282.082 562.896 282.382L562.942 282.428C563.243 282.728 563.659 282.913 564.121 282.913H564.145C564.584 282.901 565 282.716 565.301 282.416C565.602 282.128 565.787 281.724 565.787 281.274V281.239C565.787 280.523 566.365 279.935 567.094 279.935C567.811 279.935 568.401 280.512 568.401 281.239V281.274C568.401 282.439 567.915 283.49 567.14 284.263C566.377 285.025 565.313 285.498 564.168 285.521H564.156H564.121C562.965 285.521 561.913 285.06 561.138 284.321C560.374 285.048 559.345 285.51 558.223 285.521H558.212H558.177C557.02 285.521 555.968 285.06 555.193 284.321C554.43 285.048 553.4 285.498 552.279 285.521H552.267H552.232C551.076 285.521 550.023 285.06 549.248 284.321C548.485 285.048 547.456 285.498 546.334 285.521H546.322H546.288C545.131 285.521 544.09 285.06 543.316 284.321C542.552 285.048 541.523 285.51 540.389 285.521H540.378H540.343C539.187 285.521 538.134 285.06 537.359 284.321C536.596 285.048 535.567 285.498 534.445 285.521H534.433H534.399C533.242 285.521 532.19 285.06 531.415 284.321C530.651 285.048 529.622 285.498 528.5 285.521H528.489H528.454C527.298 285.521 526.245 285.06 525.47 284.321C524.707 285.048 523.678 285.498 522.556 285.521H522.544H522.509C521.33 285.521 520.254 285.036 519.479 284.263C518.704 283.49 518.219 282.416 518.219 281.239C518.219 280.512 518.809 279.935 519.526 279.935C520.254 279.935 520.833 280.523 520.833 281.239C520.833 281.701 521.018 282.116 521.318 282.416C521.619 282.716 522.035 282.901 522.498 282.901H522.521C522.961 282.89 523.377 282.705 523.678 282.405C523.967 282.116 524.152 281.724 524.163 281.285V281.262V281.227V281.216V273.517C524.163 272.79 524.753 272.213 525.47 272.213C526.199 272.213 526.777 272.802 526.777 273.517V281.216V281.227C526.777 281.666 526.939 282.059 527.217 282.359L527.263 282.405C527.564 282.705 527.98 282.89 528.442 282.89H528.466C528.905 282.878 529.321 282.693 529.622 282.393C529.911 282.105 530.096 281.712 530.108 281.274V281.251V281.216V281.204V273.621H530.154Z" fill="#432D61"/>
  <path d="M568.482 319.767C568.482 320.495 567.892 321.072 567.175 321.072C566.446 321.072 565.868 320.483 565.868 319.767V316.27H556.893H556.882H556.87H529.9H529.888H529.877H520.902V319.767C520.902 320.495 520.312 321.072 519.595 321.072C518.866 321.072 518.288 320.483 518.288 319.767V314.977V314.966V314.954V304.301V304.289V304.278V273.644C518.288 272.917 518.878 272.34 519.595 272.34H567.209C567.938 272.34 568.516 272.929 568.516 273.644V314.977V319.767H568.482ZM598.864 316.27H586.87V319.767C586.87 320.495 586.281 321.072 585.564 321.072C584.847 321.072 584.257 320.483 584.257 319.767V314.954V304.266V273.621C584.257 272.894 584.847 272.317 585.564 272.317H600.182C600.911 272.317 601.489 272.905 601.489 273.621V304.266V314.954V319.767C601.489 320.495 600.899 321.072 600.182 321.072C599.454 321.072 598.875 320.483 598.875 319.767V316.27H598.864ZM589.403 313.65H598.852V305.582H589.403V313.65ZM589.403 302.962H598.852V278.85H589.403V302.962ZM511.534 148.617H504.456V153.95H511.534V148.617ZM504.456 145.997H511.534V112.998V106.349H504.456V145.997ZM501.831 153.95V147.302V105.045C501.831 104.318 502.42 103.741 503.138 103.741H512.841C513.569 103.741 514.148 104.329 514.148 105.045V111.693H605.572V105.045C605.572 104.318 606.161 103.741 606.878 103.741H616.582C617.31 103.741 617.889 104.329 617.889 105.045V147.302V153.95H618.895C619.623 153.95 620.202 154.539 620.202 155.254V161.937C620.202 162.664 619.612 163.242 618.895 163.242H617.889V166.346V166.358V166.37V255.442H618.895C619.623 255.442 620.202 256.031 620.202 256.746V263.429C620.202 264.156 619.612 264.733 618.895 264.733H617.889V319.744C617.889 320.472 617.299 321.049 616.582 321.049C615.853 321.049 615.275 320.46 615.275 319.744V264.733H504.444V319.744C504.444 320.472 503.855 321.049 503.138 321.049C502.409 321.049 501.831 320.46 501.831 319.744V264.733H500.824C500.096 264.733 499.518 264.145 499.518 263.429V256.746C499.518 256.019 500.107 255.442 500.824 255.442H501.831V166.358V163.242H500.824C500.096 163.242 499.518 162.653 499.518 161.937V155.266C499.518 154.539 500.107 153.962 500.824 153.962H501.831V153.95ZM514.159 114.314V147.313V153.962H532.872V147.313C532.872 146.759 533.219 146.274 533.716 146.09L559.333 134.547C559.692 134.386 560.074 134.397 560.409 134.547H560.421H560.432L586.107 146.113C586.593 146.332 586.882 146.805 586.882 147.302V153.95H605.595V147.302V114.314H514.159ZM608.208 145.997H615.286V106.349H608.208V112.998V145.997ZM615.286 148.617H608.208V153.95H615.286V148.617ZM584.245 153.95V148.144L559.865 137.156L535.486 148.144V153.95H584.245ZM589.403 189.027H598.852V177.843H589.403V189.027ZM598.864 191.647H589.415V199.485H598.864V191.647ZM600.171 202.105H585.552C584.823 202.105 584.245 201.516 584.245 200.8V190.343V172.625C584.245 171.898 584.835 171.321 585.552 171.321H600.171C600.899 171.321 601.477 171.91 601.477 172.625V190.343V200.8C601.489 201.516 600.899 202.105 600.171 202.105ZM556.407 189.027H565.856V177.843H556.407V189.027ZM565.868 191.647H556.419V199.485H565.868V191.647ZM567.175 202.105H552.556C551.827 202.105 551.249 201.516 551.249 200.8V190.343V172.625C551.249 171.898 551.839 171.321 552.556 171.321H567.175C567.903 171.321 568.482 171.91 568.482 172.625V190.343V200.8C568.482 201.516 567.903 202.105 567.175 202.105ZM523.412 189.027H532.86V177.843H523.412V189.027ZM532.872 191.647H523.423V199.485H532.872V191.647ZM534.179 202.105H519.56C518.832 202.105 518.253 201.516 518.253 200.8V190.343V172.625C518.253 171.898 518.843 171.321 519.56 171.321H534.179C534.907 171.321 535.486 171.91 535.486 172.625V190.343V200.8C535.486 201.516 534.907 202.105 534.179 202.105ZM590.19 218.287H584.476L584.997 221.807H585.552H600.171H600.726L601.246 218.287H595.533C594.804 218.287 594.226 217.698 594.226 216.983V216.209H591.508V216.983C591.508 217.698 590.918 218.287 590.19 218.287ZM584.245 224.428H583.863C583.227 224.428 582.661 223.966 582.568 223.308L581.678 217.237C581.666 217.156 581.654 217.064 581.654 216.983C581.654 216.256 582.244 215.678 582.961 215.678H588.871V214.905C588.871 214.178 589.461 213.601 590.178 213.601H595.521C596.25 213.601 596.828 214.19 596.828 214.905V215.678H602.738C603.467 215.678 604.045 216.267 604.045 216.983C604.045 217.075 604.033 217.156 604.022 217.237L603.131 223.308C603.039 223.954 602.472 224.428 601.836 224.428H601.454V240.829V251.287C601.454 252.014 600.864 252.591 600.147 252.591H585.529C584.8 252.591 584.222 252.002 584.222 251.287V240.829V224.428H584.245ZM589.403 239.525H598.852V228.34H589.403V239.525ZM598.864 242.145H589.415V249.982H598.864V242.145ZM556.407 239.525H565.856V228.34H556.407V239.525ZM565.868 242.145H556.419V249.982H565.868V242.145ZM567.175 252.602H552.556C551.827 252.602 551.249 252.014 551.249 251.298V240.841V224.439H550.868C550.232 224.439 549.665 223.977 549.572 223.32L548.682 217.248C548.67 217.167 548.659 217.075 548.659 216.994C548.659 216.267 549.248 215.69 549.965 215.69H555.875V214.917C555.875 214.19 556.465 213.612 557.182 213.612H562.849C563.578 213.612 564.156 214.201 564.156 214.917V215.69H569.754C570.482 215.69 571.061 216.279 571.061 216.994C571.061 217.087 571.049 217.167 571.038 217.248L570.147 223.32C570.054 223.966 569.488 224.439 568.852 224.439H568.47V240.841V251.298C568.482 252.014 567.903 252.602 567.175 252.602ZM552.568 221.807H567.186H567.741L568.262 218.287H562.872C562.144 218.287 561.566 217.698 561.566 216.983V216.209H558.524V216.983C558.524 217.71 557.934 218.287 557.217 218.287H551.504L552.024 221.807H552.568ZM523.412 249.982H532.86V242.145H523.412V249.982ZM532.872 239.525V228.34H523.423V239.525H532.872ZM525.505 216.983C525.505 217.71 524.915 218.287 524.198 218.287H518.485L519.005 221.807H519.56H534.179H534.734L535.254 218.287H529.541C528.813 218.287 528.234 217.698 528.234 216.983V216.209H525.516V216.983H525.505ZM518.253 224.428H517.872C517.236 224.428 516.669 223.966 516.576 223.308L515.686 217.237C515.674 217.156 515.663 217.064 515.663 216.983C515.663 216.256 516.253 215.678 516.97 215.678H522.88V214.905C522.88 214.178 523.469 213.601 524.186 213.601H529.53C530.258 213.601 530.836 214.19 530.836 214.905V215.678H536.746C537.475 215.678 538.053 216.267 538.053 216.983C538.053 217.075 538.042 217.156 538.03 217.237L537.14 223.308C537.047 223.954 536.48 224.428 535.844 224.428H535.463V240.829V251.287C535.463 252.014 534.873 252.591 534.156 252.591H519.537C518.809 252.591 518.23 252.002 518.23 251.287V240.829V224.428H518.253ZM615.286 167.685H504.456V255.465H615.286V167.685ZM504.456 165.065H615.286V163.253H504.456V165.065ZM502.143 160.633H503.149H616.593H617.6V156.57H616.593H606.89H585.552H534.167H512.829H503.126H502.12V160.633H502.143ZM502.143 262.148H503.149H616.593H617.6V258.085H616.593H503.149H502.143V262.148ZM555.563 313.65V305.582H531.183V313.65H555.563ZM555.563 302.962V283.963C555.563 283.236 556.153 282.659 556.87 282.659C557.599 282.659 558.177 283.247 558.177 283.963V302.962H565.856V274.925H520.867V284.39H523.4V302.95H528.547V283.94C528.547 283.213 529.136 282.636 529.853 282.636C530.582 282.636 531.16 283.224 531.16 283.94V302.95H555.563V302.962ZM558.188 305.582V313.65H565.868V305.582H558.188ZM528.558 313.65V305.582H523.412V313.65H528.558Z" fill="#432D61"/>
  <path fill-rule="evenodd" clip-rule="evenodd" d="M85.2251 139.626H156.629V318.463H21.824V274.048H11.0451V318.255H6.5462V274.048H1.93164V248.77H21.824V128.707H85.2251V139.626Z" fill="white"/>
  <path d="M62.6259 236.547C63.3545 236.547 63.9328 237.136 63.9328 237.852C63.9328 238.579 63.343 239.156 62.6259 239.156H44.7459C44.0173 239.156 43.4391 238.567 43.4391 237.852C43.4391 237.124 44.0289 236.547 44.7459 236.547H62.6259ZM28.2307 160.148C28.9593 160.148 29.5375 160.737 29.5375 161.453C29.5375 162.18 28.9477 162.757 28.2307 162.757H21.8235C21.0949 162.757 20.5166 162.168 20.5166 161.453C20.5166 160.725 21.1064 160.148 21.8235 160.148H28.2307ZM28.2307 171.056C28.9593 171.056 29.5375 171.645 29.5375 172.36C29.5375 173.087 28.9477 173.664 28.2307 173.664H21.8235C21.0949 173.664 20.5166 173.076 20.5166 172.36C20.5166 171.633 21.1064 171.056 21.8235 171.056H28.2307ZM28.2307 181.975C28.9593 181.975 29.5375 182.564 29.5375 183.279C29.5375 184.006 28.9477 184.584 28.2307 184.584H21.8235C21.0949 184.584 20.5166 183.995 20.5166 183.279C20.5166 182.552 21.1064 181.975 21.8235 181.975H28.2307ZM28.2307 192.894C28.9593 192.894 29.5375 193.483 29.5375 194.198C29.5375 194.925 28.9477 195.503 28.2307 195.503H21.8235C21.0949 195.503 20.5166 194.914 20.5166 194.198C20.5166 193.471 21.1064 192.894 21.8235 192.894H28.2307ZM28.2307 203.802C28.9593 203.802 29.5375 204.39 29.5375 205.106C29.5375 205.833 28.9477 206.41 28.2307 206.41H21.8235C21.0949 206.41 20.5166 205.821 20.5166 205.106C20.5166 204.379 21.1064 203.802 21.8235 203.802H28.2307ZM28.2307 214.721C28.9593 214.721 29.5375 215.309 29.5375 216.025C29.5375 216.752 28.9477 217.329 28.2307 217.329H21.8235C21.0949 217.329 20.5166 216.741 20.5166 216.025C20.5166 215.298 21.1064 214.721 21.8235 214.721H28.2307ZM28.2307 225.628C28.9593 225.628 29.5375 226.217 29.5375 226.932C29.5375 227.66 28.9477 228.237 28.2307 228.237H21.8235C21.0949 228.237 20.5166 227.648 20.5166 226.932C20.5166 226.205 21.1064 225.628 21.8235 225.628H28.2307ZM28.2307 236.547C28.9593 236.547 29.5375 237.136 29.5375 237.852C29.5375 238.579 28.9477 239.156 28.2307 239.156H21.8235C21.0949 239.156 20.5166 238.567 20.5166 237.852C20.5166 237.124 21.1064 236.547 21.8235 236.547H28.2307ZM62.6259 138.322C63.3545 138.322 63.9328 138.91 63.9328 139.626C63.9328 140.353 63.343 140.93 62.6259 140.93H21.8235C21.0949 140.93 20.5166 140.342 20.5166 139.626C20.5166 138.899 21.1064 138.322 21.8235 138.322H62.6259ZM62.6259 149.229C63.3545 149.229 63.9328 149.818 63.9328 150.534C63.9328 151.261 63.343 151.838 62.6259 151.838H21.8235C21.0949 151.838 20.5166 151.249 20.5166 150.534C20.5166 149.806 21.1064 149.229 21.8235 149.229H62.6259ZM62.6259 160.148C63.3545 160.148 63.9328 160.737 63.9328 161.453C63.9328 162.18 63.343 162.757 62.6259 162.757H44.7459C44.0173 162.757 43.4391 162.168 43.4391 161.453C43.4391 160.725 44.0289 160.148 44.7459 160.148H62.6259ZM62.6259 171.056C63.3545 171.056 63.9328 171.645 63.9328 172.36C63.9328 173.087 63.343 173.664 62.6259 173.664H44.7459C44.0173 173.664 43.4391 173.076 43.4391 172.36C43.4391 171.633 44.0289 171.056 44.7459 171.056H62.6259ZM62.6259 181.975C63.3545 181.975 63.9328 182.564 63.9328 183.279C63.9328 184.006 63.343 184.584 62.6259 184.584H44.7459C44.0173 184.584 43.4391 183.995 43.4391 183.279C43.4391 182.552 44.0289 181.975 44.7459 181.975H62.6259ZM62.6259 192.894C63.3545 192.894 63.9328 193.483 63.9328 194.198C63.9328 194.925 63.343 195.503 62.6259 195.503H44.7459C44.0173 195.503 43.4391 194.914 43.4391 194.198C43.4391 193.471 44.0289 192.894 44.7459 192.894H62.6259ZM62.6259 203.802C63.3545 203.802 63.9328 204.39 63.9328 205.106C63.9328 205.833 63.343 206.41 62.6259 206.41H44.7459C44.0173 206.41 43.4391 205.821 43.4391 205.106C43.4391 204.379 44.0289 203.802 44.7459 203.802H62.6259ZM62.6259 214.721C63.3545 214.721 63.9328 215.309 63.9328 216.025C63.9328 216.752 63.343 217.329 62.6259 217.329H44.7459C44.0173 217.329 43.4391 216.741 43.4391 216.025C43.4391 215.298 44.0289 214.721 44.7459 214.721H62.6259ZM62.6259 225.628C63.3545 225.628 63.9328 226.217 63.9328 226.932C63.9328 227.66 63.343 228.237 62.6259 228.237H44.7459C44.0173 228.237 43.4391 227.648 43.4391 226.932C43.4391 226.205 44.0289 225.628 44.7459 225.628H62.6259Z" fill="#98D7DA"/>
  <path fill-rule="evenodd" clip-rule="evenodd" d="M139.224 274.048V281.77H44.7467V318.463H31.8976V281.77H21.8242V274.048H139.224Z" fill="#98D7DA"/>
  <path fill-rule="evenodd" clip-rule="evenodd" d="M31.8975 166.439H44.7465V248.77H31.8975V166.439Z" fill="#98D7DA"/>
  <path fill-rule="evenodd" clip-rule="evenodd" d="M88.9023 166.439H139.223V269.235H88.9023V166.439Z" fill="#98D7DA"/>
  <path fill-rule="evenodd" clip-rule="evenodd" d="M88.9023 248.343L139.223 219.326V233.165L88.9023 262.171V248.343Z" fill="#DEF6F7"/>
  <path fill-rule="evenodd" clip-rule="evenodd" d="M88.9023 266.107L139.223 237.101V245.042L97.2525 269.235H88.9023V266.107Z" fill="#DEF6F7"/>
  <path d="M64.0835 286.456C63.3549 286.456 62.7766 285.868 62.7766 285.152C62.7766 284.425 63.3665 283.848 64.0835 283.848H67.6456C68.3742 283.848 68.9525 284.436 68.9525 285.152C68.9525 285.291 68.9294 285.417 68.8947 285.544L66.3619 295.644C66.1884 296.348 65.4714 296.775 64.7774 296.59C64.0719 296.417 63.644 295.702 63.8291 295.009L65.9802 286.456H64.0835ZM50.633 286.456C49.9044 286.456 49.3262 285.868 49.3262 285.152C49.3262 284.425 49.916 283.848 50.633 283.848H53.108C53.8366 283.848 54.4149 284.436 54.4149 285.152V295.321C54.4149 296.048 53.8251 296.625 53.108 296.625C52.391 296.625 51.8011 296.036 51.8011 295.321V286.456H50.633ZM58.1505 283.836H60.0241C60.6139 283.836 61.1459 284.079 61.5391 284.471C61.9324 284.863 62.1752 285.394 62.1752 285.995V294.49C62.1752 295.078 61.9324 295.621 61.5391 296.013C61.1459 296.406 60.6139 296.648 60.0125 296.648H58.1389C57.5491 296.648 57.0055 296.406 56.6123 296.013C56.5776 295.979 56.5429 295.944 56.5082 295.898C56.1728 295.517 55.9762 295.032 55.9762 294.49V285.995C55.9762 285.406 56.2191 284.875 56.6123 284.483C57.0171 284.079 57.5607 283.836 58.1505 283.836ZM59.5615 286.456H58.6247V294.017H59.5615V286.456Z" fill="#432D61"/>
  <path fill-rule="evenodd" clip-rule="evenodd" d="M44.7457 274.048V318.463H31.8967V281.77H28.2305V274.048H44.7457Z" fill="#98D7DA"/>
  <path d="M29.5378 318.463C29.5378 319.19 28.9479 319.767 28.2309 319.767C27.5138 319.767 26.924 319.179 26.924 318.463V313.65V285.152V275.364H23.1422V318.463C23.1422 319.19 22.5523 319.767 21.8353 319.767C21.1067 319.767 20.5284 319.179 20.5284 318.463V275.364H12.3748V318.463C12.3748 319.19 11.785 319.767 11.068 319.767C10.3394 319.767 9.76109 319.179 9.76109 318.463V275.364H7.89907V318.463C7.89907 319.19 7.30924 319.767 6.59219 319.767C5.86357 319.767 5.28531 319.179 5.28531 318.463V275.364H1.96606C1.23745 275.364 0.65918 274.775 0.65918 274.06V248.782C0.65918 248.055 1.24901 247.478 1.96606 247.478H20.5515V128.707C20.5515 127.98 21.1414 127.403 21.8584 127.403H85.2595C85.9881 127.403 86.5664 127.991 86.5664 128.707V138.31H156.664C157.392 138.31 157.971 138.899 157.971 139.614V318.452C157.971 319.179 157.381 319.756 156.664 319.756C155.935 319.756 155.357 319.167 155.357 318.452V140.93H85.2595H68.9639V248.77C68.9639 249.498 68.3741 250.075 67.6571 250.075H44.7577H28.2309H21.8237H3.23825V272.732H6.53436H6.54593H6.55749H11.0101H11.0217H11.0333H21.8006H28.1846H28.1962H28.2078H44.6883H44.6999H44.7115H85.1554H85.167H85.1785H139.154C139.882 272.732 140.461 273.321 140.461 274.037V285.117V285.129V285.14V307.313V307.325V307.336V318.417C140.461 319.144 139.871 319.721 139.154 319.721C138.425 319.721 137.847 319.133 137.847 318.417V308.629H86.4738V318.417C86.4738 319.144 85.884 319.721 85.167 319.721C84.4383 319.721 83.8601 319.133 83.8601 318.417V307.313V296.21V285.106V275.318H46.0531V285.106V313.604V318.417C46.0531 319.144 45.4632 319.721 44.7462 319.721C44.0176 319.721 43.4393 319.133 43.4393 318.417V314.92H31.9087V319.733H29.5493V318.463H29.5378ZM139.223 270.539H128.329H96.1193H85.2248C84.4962 270.539 83.9179 269.951 83.9179 269.235V216.025V205.106V161.453C83.9179 160.725 84.5077 160.148 85.2248 160.148H96.1193H128.329H139.223C139.952 160.148 140.53 160.737 140.53 161.453V215.99V216.025V216.059V248.77V269.235C140.53 269.962 139.94 270.539 139.223 270.539ZM88.9026 267.931H94.8124V217.341H88.9026V267.931ZM97.4262 267.931H127.01V248.77V217.341H97.4262V267.931ZM129.636 267.931H137.905V250.086H129.636V267.931ZM137.905 247.466V217.341H129.636V247.466H137.905ZM137.905 214.721V166.439H129.636V205.106V214.709H137.905V214.721ZM127.022 166.439H97.4378V203.801H127.022V166.439ZM94.8009 166.439H88.891V203.801H94.8009V166.439ZM88.9026 206.422V214.721H94.8124V206.422H88.9026ZM127.022 206.422H97.4378V214.721H127.022V206.422ZM26.9125 247.466V205.117V161.453C26.9125 160.725 27.5023 160.148 28.2193 160.148H44.7346C45.4632 160.148 46.0415 160.737 46.0415 161.453V205.106V247.455H66.3386V139.626C66.3386 138.899 66.9285 138.322 67.6455 138.322H83.9063V130.023H23.1306V247.466H26.9125ZM43.4277 247.466V206.422H31.8971V247.466H43.4277ZM43.4277 203.801V166.439H31.8971V203.801H43.4277ZM137.905 306.044V297.56H86.5317V306.044H137.905ZM137.905 294.94V286.456H86.5317V294.94H137.905ZM137.905 283.836V275.353H86.5317V283.836H137.905ZM31.8971 281.77V283.836H43.4277V281.77H31.8971ZM43.4277 312.334V286.456H31.8971V312.334H43.4277Z" fill="#432D61"/>
  <path fill-rule="evenodd" clip-rule="evenodd" d="M128.329 172.568H196.345C203.03 172.568 208.488 178.004 208.488 184.687V216.914C208.488 223.585 203.041 229.033 196.345 229.033H128.329C121.644 229.033 116.186 223.597 116.186 216.914V184.687C116.186 178.004 121.644 172.568 128.329 172.568Z" fill="white"/>
  <path fill-rule="evenodd" clip-rule="evenodd" d="M127.893 178H195.909C199.702 178 202.801 181.093 202.801 184.879V217.106C202.801 220.891 199.702 223.985 195.909 223.985H127.893C124.1 223.985 121 220.891 121 217.106V184.879C121 181.093 124.1 178 127.893 178Z" fill="#6EC4CB"/>
  <path fill-rule="evenodd" clip-rule="evenodd" d="M434.104 212.366V263.591H424.482V300.053H426.459V319.768H234.29V300.053H236.268V243.542L225.015 252.002C224.552 252.349 223.881 252.256 223.523 251.795L220.967 248.413C220.62 247.951 220.712 247.282 221.175 246.924L291.874 193.76L316.624 212.377H334.966V206.225H336.643V194.233H334.966V189.35H336.643V184.468H347.468V189.35H349.145V194.233H347.468V206.225H349.145V212.377H434.104V212.366Z" fill="white"/>
  <path d="M336.424 226.263C336.424 226.99 335.834 227.567 335.117 227.567C334.389 227.567 333.811 226.979 333.811 226.263V219.672C333.811 218.945 334.4 218.368 335.117 218.368C335.846 218.368 336.424 218.957 336.424 219.672V226.263Z" fill="#98D7DA"/>
  <path d="M324.048 216.96C324.048 217.687 323.458 218.264 322.741 218.264C322.024 218.264 321.435 217.675 321.435 216.96V212.366C321.435 211.639 322.024 211.062 322.741 211.062C323.458 211.062 324.048 211.65 324.048 212.366V216.96Z" fill="#98D7DA"/>
  <path d="M423.036 252.175C423.036 252.903 422.446 253.48 421.729 253.48C421 253.48 420.422 252.891 420.422 252.175V212.366C420.422 211.639 421.012 211.062 421.729 211.062C422.457 211.062 423.036 211.65 423.036 212.366V252.175Z" fill="#98D7DA"/>
  <path d="M410.661 252.175C410.661 252.903 410.071 253.48 409.354 253.48C408.625 253.48 408.047 252.891 408.047 252.175V212.366C408.047 211.639 408.637 211.062 409.354 211.062C410.082 211.062 410.661 211.65 410.661 212.366V252.175Z" fill="#98D7DA"/>
  <path d="M398.286 252.175C398.286 252.903 397.696 253.48 396.979 253.48C396.25 253.48 395.672 252.891 395.672 252.175V212.366C395.672 211.639 396.262 211.062 396.979 211.062C397.707 211.062 398.286 211.65 398.286 212.366V252.175Z" fill="#98D7DA"/>
  <path d="M385.912 252.175C385.912 252.903 385.322 253.48 384.605 253.48C383.876 253.48 383.298 252.891 383.298 252.175V212.366C383.298 211.639 383.888 211.062 384.605 211.062C385.333 211.062 385.912 211.65 385.912 212.366V252.175Z" fill="#98D7DA"/>
  <path d="M373.548 252.175C373.548 252.903 372.958 253.48 372.241 253.48C371.513 253.48 370.935 252.891 370.935 252.175V212.366C370.935 211.639 371.524 211.062 372.241 211.062C372.97 211.062 373.548 211.65 373.548 212.366V252.175Z" fill="#98D7DA"/>
  <path d="M361.173 244.881C361.173 245.608 360.583 246.185 359.866 246.185C359.138 246.185 358.56 245.596 358.56 244.881V212.366C358.56 211.639 359.149 211.062 359.866 211.062C360.595 211.062 361.173 211.65 361.173 212.366V244.881Z" fill="#98D7DA"/>
  <path d="M348.798 235.578C348.798 236.305 348.208 236.882 347.491 236.882C346.774 236.882 346.185 236.293 346.185 235.578V219.684C346.185 218.957 346.774 218.379 347.491 218.379C348.208 218.379 348.798 218.968 348.798 219.684V235.578Z" fill="#98D7DA"/>
  <path fill-rule="evenodd" clip-rule="evenodd" d="M293.759 219.257C299.021 219.257 303.277 223.504 303.277 228.756C303.277 234.008 299.021 238.255 293.759 238.255C288.497 238.255 284.241 234.008 284.241 228.756C284.241 223.516 288.497 219.257 293.759 219.257ZM424.482 263.602V270.147H372.611L377.087 280.512L373.247 285.591H367.476V319.768H349.457V300.053H347.48V248.828L329.114 235.012L303.971 253.918V285.106L288.254 247.847L291.862 252.626L303.959 243.519L325.714 227.163L347.468 243.449L358.721 251.979L362.561 246.901L367.014 257.22H434.081V263.579H424.482V263.602ZM278.539 314.954H265.389V309.968H278.539V314.954ZM317.699 319.768H309.187V300.053L317.699 319.768ZM311.165 300.053H318.266V274.452C320.613 272.767 323.054 271.521 325.575 270.736V292.77H329.577V269.881C332.988 269.477 336.562 269.881 340.309 271.151V252.649C329.241 246.104 319.654 246.577 311.176 252.649V300.053H311.165ZM286.207 292.77H257.71V258.501H286.207V292.77ZM236.268 243.542L291.874 201.724L320.741 223.435L317.167 226.124L295.204 209.607L288.982 214.293C286.484 215.009 284.379 216.625 283.026 218.772L236.279 253.93V243.542H236.268Z" fill="#98D7DA"/>
  <path d="M277.221 309.968V313.65H265.378V309.968H277.221ZM317.989 298.749V258.547H333.475V298.749H317.989ZM329.566 294.074C330.294 294.074 330.872 293.486 330.872 292.77V263.602C330.872 262.875 330.283 262.298 329.566 262.298H321.898C321.169 262.298 320.591 262.887 320.591 263.602V292.77C320.591 293.497 321.181 294.074 321.898 294.074H329.566ZM325.564 291.466H323.205V271.624C323.98 271.29 324.766 270.99 325.564 270.736V291.466ZM336.1 298.749V257.243C336.1 256.515 335.51 255.938 334.793 255.938H316.682C315.953 255.938 315.375 256.527 315.375 257.243V298.749H312.484V254.103C314.265 252.591 316.265 251.402 318.405 250.583C320.718 249.694 323.205 249.232 325.749 249.232C328.293 249.232 330.78 249.694 333.093 250.583C335.233 251.402 337.233 252.591 339.014 254.103V298.749H336.1ZM261.712 303.678C260.983 303.678 260.405 304.266 260.405 304.982V314.954C260.405 315.682 260.995 316.259 261.712 316.259H278.539C279.268 316.259 279.846 315.67 279.846 314.954V304.982C279.846 304.255 279.256 303.678 278.539 303.678H261.712ZM340.969 303.678H310.506V301.369H311.165H316.682H334.793H340.31H340.969V303.678ZM340.969 308.606H310.506V306.298H340.969V308.606ZM340.969 313.65H310.506V311.226H340.969V313.65ZM260.405 291.466H257.722V258.501H260.405V291.466ZM279.846 258.501H284.9V291.466H279.846V258.501ZM277.221 291.466H263.019V258.501H277.221V291.466ZM254.044 252.199C253.315 252.199 252.737 252.787 252.737 253.503V292.758C252.737 293.486 253.327 294.063 254.044 294.063H261.712H278.528H286.196C286.924 294.063 287.502 293.474 287.502 292.758V253.503C287.502 252.776 286.913 252.199 286.196 252.199H278.528H261.712H254.044ZM291.828 213.474C288.832 213.474 286.126 214.686 284.172 216.637C282.217 218.587 281.003 221.3 281.003 224.278C281.003 227.267 282.217 229.968 284.172 231.919C286.126 233.869 288.844 235.081 291.828 235.081C294.823 235.081 297.53 233.869 299.484 231.919C301.439 229.968 302.653 227.256 302.653 224.278C302.653 221.288 301.439 218.587 299.484 216.637C297.518 214.686 294.812 213.474 291.828 213.474ZM302.665 246.162V298.749H302.005H237.587V244.188L291.886 203.351L318.266 223.193L288.104 245.873C287.583 246.266 287.271 246.831 287.19 247.432C287.109 248.032 287.248 248.667 287.641 249.186L290.197 252.568C290.59 253.087 291.157 253.399 291.759 253.48C292.36 253.561 292.996 253.422 293.516 253.03L302.665 246.162ZM347.931 242.238L326.524 226.136C326.038 225.767 325.379 225.79 324.928 226.148L303.254 242.445C303.22 242.468 303.173 242.503 303.139 242.538L292.14 250.814L289.885 247.824L321.227 224.255L321.25 224.232L325.737 220.85L361.59 247.813L359.335 250.802L348.556 242.688C348.394 242.492 348.174 242.33 347.931 242.238ZM341.119 252.487C339.014 250.606 336.597 249.14 333.995 248.147C331.37 247.143 328.571 246.612 325.726 246.612C322.881 246.612 320.082 247.143 317.457 248.147C314.854 249.151 312.437 250.606 310.332 252.487C310.032 252.73 309.847 253.099 309.847 253.503V298.737H309.187H305.29V244.177L325.726 228.802L346.162 244.177V257.231V263.591V298.737H342.264H341.605V253.503C341.617 253.099 341.42 252.73 341.119 252.487ZM411.066 287.795H360.908V275.076H411.066V287.795ZM411.066 303.123H360.908V300.053V290.415H411.066V300.053V303.123ZM432.786 258.547V262.287H424.471H348.787V258.547H432.786ZM423.164 264.907V298.749H413.68V289.111V273.783C413.68 273.056 413.09 272.479 412.373 272.479H359.589C358.861 272.479 358.282 273.067 358.282 273.783V289.111V298.749H349.469H348.81V264.907H423.164ZM336.285 192.906V190.643H336.655H347.48H347.85V192.906H347.48H336.655H336.285ZM346.173 188.023H337.974V185.761H346.173V188.023ZM347.85 207.53V212.378V218.38H336.285V212.378V207.53H336.655H347.48H347.85ZM346.173 204.91H337.974V195.526H346.173V204.91ZM315.895 213.451L323.552 219.211L320.429 221.554L292.661 200.662C292.175 200.293 291.516 200.316 291.065 200.674L235.54 242.434C235.505 242.457 235.47 242.492 235.435 242.515L224.437 250.79L222.182 247.801L291.897 195.376L315.803 213.359C315.826 213.405 315.861 213.428 315.895 213.451ZM320.545 213.682H333.66V219.684C333.66 220.411 334.249 220.988 334.967 220.988H349.157C349.886 220.988 350.464 220.399 350.464 219.684V213.682H432.774V255.938H348.776V246.174L357.935 253.053C358.456 253.445 359.092 253.584 359.693 253.503C360.295 253.422 360.873 253.11 361.255 252.591L363.81 249.209C364.204 248.69 364.342 248.055 364.262 247.466C364.181 246.866 363.868 246.289 363.348 245.908L326.524 218.218L326.501 218.206L326.489 218.195L320.545 213.682ZM284.31 227.579C284.889 222.881 288.902 219.257 293.759 219.257C295.864 219.257 297.807 219.938 299.392 221.092C299.808 222.073 300.039 223.147 300.039 224.278C300.039 226.54 299.126 228.583 297.634 230.072C296.153 231.549 294.095 232.473 291.828 232.473C289.561 232.473 287.514 231.561 286.022 230.072C285.305 229.356 284.727 228.514 284.31 227.579ZM235.609 319.768V301.369H236.268H300.687V319.768C300.687 320.495 301.277 321.072 301.994 321.072C302.722 321.072 303.301 320.483 303.301 319.768V301.369H303.96H307.857V304.993V309.922V314.966V319.779C307.857 320.506 308.447 321.083 309.164 321.083C309.893 321.083 310.471 320.495 310.471 319.779V316.282H340.934V319.779C340.934 320.506 341.524 321.083 342.241 321.083C342.958 321.083 343.548 320.495 343.548 319.779V314.966V309.922V304.993V301.369H347.446H348.105V319.768C348.105 320.495 348.695 321.072 349.412 321.072C350.14 321.072 350.719 320.483 350.719 319.768V301.369H358.224V304.439V319.768C358.224 320.495 358.814 321.072 359.531 321.072C360.26 321.072 360.838 320.483 360.838 319.768V305.744H410.997V319.768C410.997 320.495 411.587 321.072 412.304 321.072C413.032 321.072 413.611 320.483 413.611 319.768V304.439V301.369H424.401H425.06V319.768C425.06 320.495 425.65 321.072 426.367 321.072C427.096 321.072 427.674 320.483 427.674 319.768V300.053C427.674 299.326 427.084 298.749 426.367 298.749H425.708V264.907H434.024C434.752 264.907 435.33 264.318 435.33 263.602V257.243V212.378C435.33 211.65 434.741 211.073 434.024 211.073H350.395V206.225C350.395 205.498 349.805 204.921 349.088 204.921H348.718V195.537H349.088C349.816 195.537 350.395 194.949 350.395 194.233V189.351C350.395 188.623 349.805 188.046 349.088 188.046H348.718V184.468C348.718 183.741 348.128 183.164 347.411 183.164H336.586C335.857 183.164 335.279 183.752 335.279 184.468V188.046H334.909C334.18 188.046 333.602 188.635 333.602 189.351V194.233C333.602 194.96 334.192 195.537 334.909 195.537H335.279V204.921H334.909C334.18 204.921 333.602 205.51 333.602 206.225V211.073H317.006L292.626 192.744C292.175 192.386 291.516 192.363 291.03 192.732L220.389 245.873C219.868 246.266 219.556 246.831 219.475 247.432C219.394 248.032 219.533 248.667 219.926 249.186L222.482 252.568C222.875 253.087 223.442 253.399 224.044 253.48C224.645 253.561 225.281 253.422 225.802 253.03L234.961 246.15V298.737H234.302C233.573 298.737 232.995 299.326 232.995 300.042V319.756C232.995 320.483 233.585 321.06 234.302 321.06C235.019 321.072 235.609 320.495 235.609 319.768ZM326.778 218.426C326.709 218.333 326.628 218.253 326.547 218.183L326.778 218.426ZM292.915 192.963C292.846 192.871 292.765 192.79 292.684 192.721L292.915 192.963Z" fill="#432D61"/>
  <path d="M323.205 271.624C323.98 271.29 324.766 270.99 325.564 270.736V291.466H323.205V271.624Z" fill="#98D7DA"/>
  <path d="M181.405 56.3493C180.677 56.3493 180.098 55.7607 180.098 55.045C180.098 54.3179 180.688 53.7407 181.405 53.7407H220.438C221.167 53.7407 221.745 54.3294 221.745 55.045C221.745 55.7722 221.155 56.3493 220.438 56.3493H181.405ZM476.783 56.3493C476.055 56.3493 475.476 55.7607 475.476 55.045C475.476 54.3179 476.066 53.7407 476.783 53.7407H506.98C507.709 53.7407 508.287 54.3294 508.287 55.045C508.287 55.7722 507.697 56.3493 506.98 56.3493H476.783ZM411.104 42.7063C412.839 36.0809 417.153 31.4871 422.149 29.3171C424.624 28.2437 427.261 27.7589 429.84 27.909C432.43 28.0706 434.963 28.8785 437.195 30.379C441.127 33.0338 444.088 37.8469 444.747 45.0378C446.667 43.5027 449.05 42.3946 451.559 41.806L451.617 41.7944C454.312 41.1711 457.18 41.125 459.805 41.806C462.512 42.4985 464.94 43.9528 466.664 46.2959C468.26 48.4543 469.243 51.3515 469.243 55.045C469.243 55.7722 468.653 56.3493 467.936 56.3493H392.044C391.316 56.3493 390.737 55.7607 390.737 55.045V55.0104C390.518 50.0703 391.755 46.1805 393.918 43.5488C394.901 42.36 396.069 41.4251 397.376 40.7671C398.683 40.1208 400.128 39.7399 401.655 39.6706C404.604 39.5321 407.866 40.5017 411.104 42.7063ZM423.19 31.7064C418.448 33.7725 414.388 38.4125 413.243 45.1879C413.209 45.4072 413.116 45.6149 412.966 45.7996C412.503 46.3536 411.682 46.4344 411.127 45.9727C407.889 43.3065 404.616 42.1407 401.782 42.2792C400.626 42.3369 399.527 42.6139 398.544 43.1102C397.561 43.6066 396.682 44.2991 395.942 45.1994C394.334 47.1501 393.351 50.0356 393.328 53.7292H466.583C466.398 51.2591 465.669 49.3085 464.57 47.8426C463.217 46.0189 461.297 44.8762 459.146 44.3222C456.949 43.7566 454.52 43.7912 452.207 44.3337L452.161 44.3453C449.119 45.0609 446.32 46.6422 444.609 48.8352C444.366 49.1353 443.996 49.3316 443.579 49.3316C442.862 49.3316 442.272 48.7429 442.272 48.0273C442.249 40.1323 439.508 35.0883 435.726 32.5259C433.899 31.2909 431.817 30.633 429.678 30.506C427.515 30.379 425.283 30.7945 423.19 31.7064ZM384.504 56.3493H365.109C364.392 56.3493 363.813 55.7837 363.802 55.0681C363.362 50.5781 365.097 47.5194 367.78 45.8458C369.076 45.0378 370.579 44.5646 372.175 44.4145C373.725 44.2645 375.356 44.4376 376.928 44.9108C381.08 46.1574 384.862 49.5162 385.811 54.8142C385.938 55.5298 385.464 56.2108 384.747 56.3378C384.654 56.3493 384.573 56.3493 384.504 56.3493ZM366.346 53.7407H382.815C381.682 50.4281 379.033 48.2812 376.165 47.4271C374.904 47.0462 373.621 46.9077 372.395 47.0231C371.215 47.1385 370.105 47.4732 369.157 48.0619C367.491 49.1123 366.358 50.9821 366.346 53.7407ZM263.068 27.1818C262.339 27.1818 261.761 26.5931 261.761 25.8775C261.761 25.1503 262.351 24.5732 263.068 24.5732H275.824C277.05 21.1336 279.19 18.6751 281.711 17.1746C283.724 15.9857 285.979 15.4086 288.211 15.4432C290.455 15.4778 292.675 16.1358 294.606 17.3939C296.931 18.9175 298.839 21.3067 299.857 24.5617H341.735C342.464 24.5617 343.042 25.1503 343.042 25.866C343.042 26.5931 342.452 27.1702 341.735 27.1702H288.512C287.783 27.1702 287.205 26.5816 287.205 25.866C287.205 25.1388 287.794 24.5617 288.512 24.5617H297.093C296.226 22.3225 294.838 20.6604 293.184 19.5869C291.669 18.5943 289.934 18.0864 288.188 18.0518C286.43 18.0172 284.649 18.4789 283.064 19.4253C280.878 20.7181 279.04 22.9573 278.08 26.143C277.952 26.7432 277.432 27.1933 276.796 27.1933H263.068V27.1818ZM351.311 27.1818C350.583 27.1818 350.004 26.5931 350.004 25.8775C350.004 25.1503 350.594 24.5732 351.311 24.5732H360.876C361.604 24.5732 362.183 25.1619 362.183 25.8775C362.183 26.6047 361.593 27.1818 360.876 27.1818H351.311ZM231.645 16.1011C230.13 9.64895 226.66 5.62067 222.636 3.78544C220.496 2.81588 218.183 2.45807 215.928 2.67737C213.661 2.89668 211.452 3.70464 209.486 5.06664C205.704 7.69829 202.905 12.396 202.604 18.9175C202.57 19.6331 201.968 20.1987 201.24 20.164C200.823 20.141 200.465 19.9447 200.245 19.6331C198.267 17.1284 195.445 15.4778 192.508 15.0046C191.166 14.7853 189.813 14.8084 188.506 15.1085C187.211 15.4086 185.973 15.9742 184.863 16.8514C182.886 18.3981 181.266 20.9143 180.411 24.5617H251.722C251.699 20.8912 250.716 18.0287 249.109 16.078C248.357 15.1662 247.455 14.4506 246.448 13.9543C245.442 13.4579 244.332 13.1694 243.141 13.1117C240.284 12.9732 236.988 14.1389 233.75 16.8052C233.195 17.2669 232.373 17.1861 231.911 16.6205C231.784 16.4705 231.691 16.2858 231.645 16.1011ZM223.723 1.40771C228.013 3.35837 231.749 7.36357 233.68 13.5964C236.953 11.3457 240.273 10.353 243.268 10.5031C244.829 10.5839 246.298 10.9532 247.617 11.6112C248.947 12.2691 250.126 13.2155 251.121 14.4275C253.284 17.0591 254.533 20.9258 254.313 25.8313V25.866C254.313 26.5931 253.723 27.1702 253.006 27.1702H178.815C178.745 27.1702 178.676 27.1702 178.606 27.1587C177.889 27.0433 177.415 26.3738 177.531 25.6582C178.387 20.4641 180.526 16.9322 183.256 14.7853C184.69 13.6657 186.274 12.9385 187.928 12.5576C189.57 12.1767 191.27 12.1421 192.936 12.4191C195.584 12.8577 198.163 14.0697 200.291 15.9165C201.24 9.9606 204.189 5.56296 208.005 2.91976C210.33 1.30383 212.978 0.345815 215.685 0.0803406C218.379 -0.196676 221.155 0.241934 223.723 1.40771ZM110.417 45.4649C109.689 45.4649 109.11 44.8762 109.11 44.1606C109.11 43.4334 109.7 42.8563 110.417 42.8563H127.754C129.095 38.955 131.455 36.1617 134.242 34.4881C136.405 33.1838 138.822 32.549 141.227 32.5836C143.633 32.6182 146.015 33.3223 148.109 34.7074C150.699 36.4157 152.827 39.1397 153.961 42.8678H158.009C158.737 42.8678 159.315 43.4565 159.315 44.1721C159.315 44.8993 158.726 45.4764 158.009 45.4764H144.327C143.598 45.4764 143.02 44.8878 143.02 44.1721C143.02 43.445 143.61 42.8678 144.327 42.8678H151.208C150.225 40.1554 148.606 38.1586 146.675 36.8889C145.009 35.7924 143.112 35.2268 141.193 35.2037C139.273 35.1806 137.33 35.6885 135.583 36.7389C133.12 38.2278 131.05 40.8018 129.974 44.4953C129.835 45.0724 129.315 45.488 128.702 45.488H110.417V45.4649ZM166.763 45.4649C166.035 45.4649 165.457 44.8762 165.457 44.1606C165.457 43.4334 166.046 42.8563 166.763 42.8563H195.503C196.232 42.8563 196.81 43.445 196.81 44.1606C196.81 44.8878 196.22 45.4649 195.503 45.4649H166.763ZM229.193 56.3493C228.464 56.3493 227.886 55.7607 227.886 55.045C227.886 54.3179 228.476 53.7407 229.193 53.7407H238.989C239.717 53.7407 240.296 54.3294 240.296 55.045C240.296 55.7722 239.706 56.3493 238.989 56.3493H229.193Z" fill="#432D61"/>
  <path fill-rule="evenodd" clip-rule="evenodd" d="M395.024 291.535H463.04C469.725 291.535 475.184 296.971 475.184 303.654V335.881C475.184 342.552 469.736 348 463.04 348H395.024C388.34 348 382.881 342.564 382.881 335.881V303.654C382.892 296.983 388.34 291.535 395.024 291.535Z" fill="white"/>
  <path fill-rule="evenodd" clip-rule="evenodd" d="M394.893 296.775H462.909C466.702 296.775 469.802 299.868 469.802 303.654V335.881C469.802 339.667 466.702 342.76 462.909 342.76H394.893C391.1 342.76 388 339.667 388 335.881V303.654C388 299.868 391.1 296.775 394.893 296.775Z" fill="#6EC4CB"/>
  <path d="M142.953 195.578H145.398L141.516 207H138.875L135 195.578H137.445L139.594 202.375C139.714 202.776 139.836 203.245 139.961 203.781C140.091 204.312 140.172 204.682 140.203 204.891C140.26 204.411 140.456 203.573 140.789 202.375L142.953 195.578ZM153.422 207H146.844V195.578H153.422V197.562H149.266V200.07H153.133V202.055H149.266V205H153.422V207ZM165.945 207H162.867L157.898 198.359H157.828C157.927 199.885 157.977 200.974 157.977 201.625V207H155.812V195.578H158.867L163.828 204.133H163.883C163.805 202.648 163.766 201.599 163.766 200.984V195.578H165.945V207ZM178.305 201.18C178.305 203.06 177.768 204.5 176.695 205.5C175.628 206.5 174.083 207 172.062 207H168.828V195.578H172.414C174.279 195.578 175.727 196.07 176.758 197.055C177.789 198.039 178.305 199.414 178.305 201.18ZM175.789 201.242C175.789 198.789 174.706 197.562 172.539 197.562H171.25V205H172.289C174.622 205 175.789 203.747 175.789 201.242ZM187.25 207H180.672V195.578H187.25V197.562H183.094V200.07H186.961V202.055H183.094V205H187.25V207Z" fill="white"/>
  <path d="M471.953 195.578H474.398L470.516 207H467.875L464 195.578H466.445L468.594 202.375C468.714 202.776 468.836 203.245 468.961 203.781C469.091 204.312 469.172 204.682 469.203 204.891C469.26 204.411 469.456 203.573 469.789 202.375L471.953 195.578ZM482.422 207H475.844V195.578H482.422V197.562H478.266V200.07H482.133V202.055H478.266V205H482.422V207ZM494.945 207H491.867L486.898 198.359H486.828C486.927 199.885 486.977 200.974 486.977 201.625V207H484.812V195.578H487.867L492.828 204.133H492.883C492.805 202.648 492.766 201.599 492.766 200.984V195.578H494.945V207ZM507.305 201.18C507.305 203.06 506.768 204.5 505.695 205.5C504.628 206.5 503.083 207 501.062 207H497.828V195.578H501.414C503.279 195.578 504.727 196.07 505.758 197.055C506.789 198.039 507.305 199.414 507.305 201.18ZM504.789 201.242C504.789 198.789 503.706 197.562 501.539 197.562H500.25V205H501.289C503.622 205 504.789 203.747 504.789 201.242ZM509.672 207V195.578H512.094V207H509.672ZM524.445 201.18C524.445 203.06 523.909 204.5 522.836 205.5C521.768 206.5 520.224 207 518.203 207H514.969V195.578H518.555C520.419 195.578 521.867 196.07 522.898 197.055C523.93 198.039 524.445 199.414 524.445 201.18ZM521.93 201.242C521.93 198.789 520.846 197.562 518.68 197.562H517.391V205H518.43C520.763 205 521.93 203.747 521.93 201.242ZM537.18 201.273C537.18 203.164 536.711 204.617 535.773 205.633C534.836 206.648 533.492 207.156 531.742 207.156C529.992 207.156 528.648 206.648 527.711 205.633C526.773 204.617 526.305 203.159 526.305 201.258C526.305 199.357 526.773 197.906 527.711 196.906C528.654 195.901 530.003 195.398 531.758 195.398C533.513 195.398 534.854 195.904 535.781 196.914C536.714 197.924 537.18 199.378 537.18 201.273ZM528.844 201.273C528.844 202.549 529.086 203.51 529.57 204.156C530.055 204.802 530.779 205.125 531.742 205.125C533.674 205.125 534.641 203.841 534.641 201.273C534.641 198.701 533.68 197.414 531.758 197.414C530.794 197.414 530.068 197.74 529.578 198.391C529.089 199.036 528.844 199.997 528.844 201.273Z" fill="white"/>
  <path d="M410.352 314.578H412.797L408.914 326H406.273L402.398 314.578H404.844L406.992 321.375C407.112 321.776 407.234 322.245 407.359 322.781C407.49 323.312 407.57 323.682 407.602 323.891C407.659 323.411 407.854 322.573 408.188 321.375L410.352 314.578ZM420.82 326H414.242V314.578H420.82V316.562H416.664V319.07H420.531V321.055H416.664V324H420.82V326ZM433.344 326H430.266L425.297 317.359H425.227C425.326 318.885 425.375 319.974 425.375 320.625V326H423.211V314.578H426.266L431.227 323.133H431.281C431.203 321.648 431.164 320.599 431.164 319.984V314.578H433.344V326ZM445.703 320.18C445.703 322.06 445.167 323.5 444.094 324.5C443.026 325.5 441.482 326 439.461 326H436.227V314.578H439.812C441.677 314.578 443.125 315.07 444.156 316.055C445.188 317.039 445.703 318.414 445.703 320.18ZM443.188 320.242C443.188 317.789 442.104 316.562 439.938 316.562H438.648V324H439.688C442.021 324 443.188 322.747 443.188 320.242ZM454.648 326H448.07V314.578H454.648V316.562H450.492V319.07H454.359V321.055H450.492V324H454.648V326Z" fill="white"/>
  <rect x="92" y="146" width="131" height="90" rx="12" fill="#6EC4CB" stroke="white" stroke-width="6"/>
  <path d="M116.58 206.521C117.572 206.521 118.447 206.745 119.204 207.193C119.962 207.63 120.548 208.27 120.964 209.113C121.391 209.955 121.604 210.958 121.604 212.121C121.604 213.283 121.391 214.286 120.964 215.129C120.538 215.971 119.94 216.617 119.172 217.065C118.415 217.502 117.54 217.721 116.548 217.721H112.228V206.521H116.58ZM116.148 215.737C117.098 215.737 117.85 215.454 118.404 214.889C118.959 214.323 119.236 213.395 119.236 212.105C119.236 210.814 118.959 209.891 118.404 209.337C117.85 208.771 117.098 208.489 116.148 208.489H114.388V215.737H116.148ZM127.999 217.865C126.9 217.865 125.962 217.614 125.183 217.113C124.415 216.601 123.834 215.913 123.439 215.049C123.055 214.174 122.863 213.203 122.863 212.137C122.863 211.059 123.06 210.083 123.455 209.209C123.85 208.323 124.431 207.619 125.199 207.097C125.978 206.574 126.911 206.313 127.999 206.313C129.087 206.313 130.015 206.574 130.783 207.097C131.551 207.609 132.132 208.307 132.527 209.193C132.922 210.067 133.119 211.049 133.119 212.137C133.119 213.214 132.922 214.19 132.527 215.065C132.132 215.929 131.546 216.611 130.767 217.113C129.999 217.614 129.076 217.865 127.999 217.865ZM127.999 215.881C128.874 215.881 129.551 215.529 130.031 214.825C130.511 214.11 130.751 213.203 130.751 212.105C130.751 211.401 130.644 210.761 130.431 210.185C130.228 209.609 129.919 209.15 129.503 208.809C129.087 208.467 128.586 208.297 127.999 208.297C127.412 208.297 126.906 208.473 126.479 208.825C126.063 209.166 125.748 209.625 125.535 210.201C125.322 210.777 125.215 211.417 125.215 212.121C125.215 213.198 125.455 214.094 125.935 214.809C126.426 215.523 127.114 215.881 127.999 215.881ZM138.528 206.537H140.768V217.737H138.528V206.537ZM142.822 206.537H146.118L148.598 213.433H148.646L151.126 206.537H154.422V217.737H152.246V209.705H152.166L149.35 217.737H147.91L145.078 209.705H144.998V217.737H142.822V206.537ZM161.124 217.865C160.025 217.865 159.087 217.614 158.308 217.113C157.54 216.601 156.959 215.913 156.564 215.049C156.18 214.174 155.988 213.203 155.988 212.137C155.988 211.059 156.185 210.083 156.58 209.209C156.975 208.323 157.556 207.619 158.324 207.097C159.103 206.574 160.036 206.313 161.124 206.313C162.212 206.313 163.14 206.574 163.908 207.097C164.676 207.609 165.257 208.307 165.652 209.193C166.047 210.067 166.244 211.049 166.244 212.137C166.244 213.214 166.047 214.19 165.652 215.065C165.257 215.929 164.671 216.611 163.892 217.113C163.124 217.614 162.201 217.865 161.124 217.865ZM161.124 215.881C161.999 215.881 162.676 215.529 163.156 214.825C163.636 214.11 163.876 213.203 163.876 212.105C163.876 211.401 163.769 210.761 163.556 210.185C163.353 209.609 163.044 209.15 162.628 208.809C162.212 208.467 161.711 208.297 161.124 208.297C160.537 208.297 160.031 208.473 159.604 208.825C159.188 209.166 158.873 209.625 158.66 210.201C158.447 210.777 158.34 211.417 158.34 212.121C158.34 213.198 158.58 214.094 159.06 214.809C159.551 215.523 160.239 215.881 161.124 215.881ZM160.276 205.321L161.892 202.201H164.084L162.036 205.337L160.276 205.321ZM166.68 206.537H168.888L171.72 215.385H171.816L174.632 206.537H176.856L173.192 217.753H170.328L166.68 206.537ZM185.668 208.473H180.484V211.177H184.884V212.921H180.484V215.801H185.668V217.737H178.26V206.537H185.668V208.473ZM189.546 215.801H194.41V217.737H187.338L187.322 206.537H189.562L189.546 215.801Z" fill="white"/>
  <path d="M119.572 178L118.66 175.248H114.82L113.924 178H111.684L115.716 166.8H117.796L121.812 178H119.572ZM115.38 173.536H118.1L116.772 169.552H116.676L115.38 173.536ZM129.759 166.8V168.736H126.719V178H124.511V168.736H121.471V166.8H129.759ZM138.637 168.736H133.453V171.44H137.853V173.184H133.453V176.064H138.637V178H131.229V166.8H138.637V168.736ZM134.045 165.584L135.661 162.464H137.853L135.805 165.6L134.045 165.584ZM148.01 178.24C147.061 178.24 146.277 178.085 145.658 177.776C145.04 177.456 144.586 177.045 144.298 176.544C144.021 176.043 143.882 175.504 143.882 174.928C143.882 174.373 143.989 173.909 144.202 173.536C144.426 173.152 144.677 172.864 144.954 172.672C145.232 172.48 145.477 172.352 145.69 172.288V172.224C145.498 172.149 145.285 172.011 145.05 171.808C144.826 171.605 144.624 171.333 144.442 170.992C144.272 170.64 144.186 170.235 144.186 169.776C144.186 169.253 144.314 168.752 144.57 168.272C144.837 167.781 145.258 167.381 145.834 167.072C146.41 166.763 147.136 166.608 148.01 166.608C148.906 166.608 149.637 166.768 150.202 167.088C150.778 167.397 151.194 167.792 151.45 168.272C151.706 168.752 151.834 169.253 151.834 169.776C151.834 170.235 151.744 170.64 151.562 170.992C151.392 171.333 151.189 171.605 150.954 171.808C150.73 172.011 150.528 172.149 150.346 172.224V172.288C150.56 172.352 150.8 172.48 151.066 172.672C151.344 172.864 151.594 173.152 151.818 173.536C152.042 173.909 152.154 174.373 152.154 174.928C152.154 175.504 152.01 176.043 151.722 176.544C151.445 177.045 150.992 177.456 150.362 177.776C149.744 178.085 148.96 178.24 148.01 178.24ZM148.01 171.552C148.597 171.552 149.029 171.397 149.306 171.088C149.594 170.768 149.738 170.395 149.738 169.968C149.738 169.552 149.594 169.184 149.306 168.864C149.018 168.544 148.586 168.384 148.01 168.384C147.424 168.384 146.986 168.544 146.698 168.864C146.421 169.173 146.282 169.541 146.282 169.968C146.282 170.405 146.421 170.779 146.698 171.088C146.986 171.397 147.424 171.552 148.01 171.552ZM148.01 176.416C148.661 176.416 149.141 176.24 149.45 175.888C149.77 175.536 149.93 175.131 149.93 174.672C149.93 174.192 149.77 173.776 149.45 173.424C149.13 173.061 148.65 172.88 148.01 172.88C147.37 172.88 146.89 173.061 146.57 173.424C146.25 173.776 146.09 174.192 146.09 174.672C146.09 175.152 146.245 175.563 146.554 175.904C146.874 176.245 147.36 176.416 148.01 176.416ZM155.521 174.56L156.273 173.936C156.977 173.36 157.526 172.891 157.921 172.528C158.315 172.165 158.641 171.781 158.897 171.376C159.153 170.96 159.281 170.539 159.281 170.112C159.281 169.653 159.142 169.264 158.865 168.944C158.587 168.624 158.166 168.464 157.601 168.464C156.907 168.464 156.443 168.667 156.209 169.072C155.985 169.467 155.873 169.888 155.873 170.336V170.528H153.697C153.697 169.728 153.851 169.029 154.161 168.432C154.481 167.835 154.929 167.376 155.505 167.056C156.091 166.725 156.779 166.56 157.569 166.56C158.369 166.56 159.051 166.715 159.617 167.024C160.193 167.323 160.625 167.733 160.913 168.256C161.211 168.779 161.361 169.355 161.361 169.984C161.361 170.613 161.227 171.189 160.961 171.712C160.694 172.224 160.374 172.672 160.001 173.056C159.627 173.429 159.147 173.861 158.561 174.352L158.305 174.576L156.657 175.984V176.064H161.457V178H153.761L153.745 176.112L155.521 174.56ZM165.101 171.264C164.365 171.264 163.821 171.035 163.469 170.576C163.117 170.117 162.941 169.573 162.941 168.944C162.941 168.315 163.117 167.776 163.469 167.328C163.821 166.869 164.365 166.64 165.101 166.64C165.837 166.64 166.37 166.864 166.701 167.312C167.042 167.76 167.213 168.304 167.213 168.944C167.213 169.584 167.042 170.133 166.701 170.592C166.37 171.04 165.837 171.264 165.101 171.264ZM170.653 166.8H172.493L166.717 178H164.877L170.653 166.8ZM165.133 170C165.591 170 165.821 169.648 165.821 168.944C165.821 168.24 165.591 167.888 165.133 167.888C164.674 167.888 164.445 168.24 164.445 168.944C164.445 169.648 164.674 170 165.133 170ZM172.317 178.16C171.591 178.16 171.047 177.931 170.685 177.472C170.333 177.003 170.157 176.459 170.157 175.84C170.157 175.221 170.333 174.683 170.685 174.224C171.047 173.765 171.591 173.536 172.317 173.536C173.053 173.536 173.586 173.765 173.917 174.224C174.258 174.672 174.429 175.211 174.429 175.84C174.429 176.469 174.258 177.013 173.917 177.472C173.586 177.931 173.053 178.16 172.317 178.16ZM172.365 176.896C172.823 176.896 173.053 176.544 173.053 175.84C173.053 175.136 172.823 174.784 172.365 174.784C171.906 174.784 171.677 175.136 171.677 175.84C171.677 176.544 171.906 176.896 172.365 176.896Z" fill="white"/>
  <path d="M116.264 186.784C117.256 186.784 118.131 187.008 118.888 187.456C119.645 187.893 120.232 188.533 120.648 189.376C121.075 190.219 121.288 191.221 121.288 192.384C121.288 193.547 121.075 194.549 120.648 195.392C120.221 196.235 119.624 196.88 118.856 197.328C118.099 197.765 117.224 197.984 116.232 197.984H111.912V186.784H116.264ZM115.832 196C116.781 196 117.533 195.717 118.088 195.152C118.643 194.587 118.92 193.659 118.92 192.368C118.92 191.077 118.643 190.155 118.088 189.6C117.533 189.035 116.781 188.752 115.832 188.752H114.072V196H115.832ZM127.683 198.128C126.584 198.128 125.645 197.877 124.867 197.376C124.099 196.864 123.517 196.176 123.123 195.312C122.739 194.437 122.547 193.467 122.547 192.4C122.547 191.323 122.744 190.347 123.139 189.472C123.533 188.587 124.115 187.883 124.883 187.36C125.661 186.837 126.595 186.576 127.683 186.576C128.771 186.576 129.699 186.837 130.467 187.36C131.235 187.872 131.816 188.571 132.211 189.456C132.605 190.331 132.803 191.312 132.803 192.4C132.803 193.477 132.605 194.453 132.211 195.328C131.816 196.192 131.229 196.875 130.451 197.376C129.683 197.877 128.76 198.128 127.683 198.128ZM127.683 196.144C128.557 196.144 129.235 195.792 129.715 195.088C130.195 194.373 130.435 193.467 130.435 192.368C130.435 191.664 130.328 191.024 130.115 190.448C129.912 189.872 129.603 189.413 129.187 189.072C128.771 188.731 128.269 188.56 127.683 188.56C127.096 188.56 126.589 188.736 126.163 189.088C125.747 189.429 125.432 189.888 125.219 190.464C125.005 191.04 124.899 191.68 124.899 192.384C124.899 193.461 125.139 194.357 125.619 195.072C126.109 195.787 126.797 196.144 127.683 196.144ZM137.364 186.8H139.572L142.404 195.648H142.5L145.316 186.8H147.54L143.876 198.016H141.012L137.364 186.8ZM154.834 198L153.922 195.248H150.082L149.186 198H146.946L150.978 186.8H153.058L157.074 198H154.834ZM150.642 193.536H153.362L152.034 189.552H151.938L150.642 193.536ZM160.511 196.064H165.375V198H158.303L158.287 186.8H160.527L160.511 196.064ZM171.011 198.128C169.912 198.128 168.973 197.877 168.195 197.376C167.427 196.864 166.845 196.176 166.451 195.312C166.067 194.437 165.875 193.467 165.875 192.4C165.875 191.323 166.072 190.347 166.467 189.472C166.861 188.587 167.443 187.883 168.211 187.36C168.989 186.837 169.923 186.576 171.011 186.576C172.099 186.576 173.027 186.837 173.795 187.36C174.563 187.872 175.144 188.571 175.539 189.456C175.933 190.331 176.131 191.312 176.131 192.4C176.131 193.477 175.933 194.453 175.539 195.328C175.144 196.192 174.557 196.875 173.779 197.376C173.011 197.877 172.088 198.128 171.011 198.128ZM171.011 196.144C171.885 196.144 172.563 195.792 173.043 195.088C173.523 194.373 173.763 193.467 173.763 192.368C173.763 191.664 173.656 191.024 173.443 190.448C173.24 189.872 172.931 189.413 172.515 189.072C172.099 188.731 171.597 188.56 171.011 188.56C170.424 188.56 169.917 188.736 169.491 189.088C169.075 189.429 168.76 189.888 168.547 190.464C168.333 191.04 168.227 191.68 168.227 192.384C168.227 193.461 168.467 194.357 168.947 195.072C169.437 195.787 170.125 196.144 171.011 196.144ZM181.42 193.936H179.948V198H177.74V186.8H181.884C182.78 186.8 183.532 186.971 184.14 187.312C184.748 187.653 185.196 188.096 185.484 188.64C185.772 189.184 185.916 189.776 185.916 190.416C185.916 191.152 185.724 191.819 185.34 192.416C184.956 193.003 184.375 193.424 183.596 193.68L186.124 198H183.804L181.42 193.936ZM179.948 192.128H181.548C182.167 192.128 182.689 192 183.116 191.744C183.553 191.477 183.772 191.035 183.772 190.416C183.772 189.797 183.559 189.365 183.132 189.12C182.705 188.864 182.177 188.736 181.548 188.736H179.948V192.128Z" fill="white"/>
  <rect x="343" y="272" width="161" height="70" rx="12" fill="#6EC4CB" stroke="white" stroke-width="6"/>
  <path d="M373.11 324.709L372.198 321.957H368.358L367.462 324.709H365.222L369.254 313.509H371.334L375.35 324.709H373.11ZM368.918 320.245H371.638L370.31 316.261H370.214L368.918 320.245ZM383.297 313.509V315.445H380.257V324.709H378.049V315.445H375.009V313.509H383.297ZM392.175 315.445H386.991V318.149H391.391V319.893H386.991V322.773H392.175V324.709H384.767V313.509H392.175V315.445ZM387.583 312.293L389.199 309.173H391.391L389.343 312.309L387.583 312.293ZM399.324 321.269L400.076 320.645C400.78 320.069 401.33 319.6 401.724 319.237C402.119 318.874 402.444 318.49 402.7 318.085C402.956 317.669 403.084 317.248 403.084 316.821C403.084 316.362 402.946 315.973 402.668 315.653C402.391 315.333 401.97 315.173 401.404 315.173C400.711 315.173 400.247 315.376 400.012 315.781C399.788 316.176 399.676 316.597 399.676 317.045V317.237H397.5C397.5 316.437 397.655 315.738 397.964 315.141C398.284 314.544 398.732 314.085 399.308 313.765C399.895 313.434 400.583 313.269 401.372 313.269C402.172 313.269 402.855 313.424 403.42 313.733C403.996 314.032 404.428 314.442 404.716 314.965C405.015 315.488 405.164 316.064 405.164 316.693C405.164 317.322 405.031 317.898 404.764 318.421C404.498 318.933 404.178 319.381 403.804 319.765C403.431 320.138 402.951 320.57 402.364 321.061L402.108 321.285L400.46 322.693V322.773H405.26V324.709H397.564L397.548 322.821L399.324 321.269ZM411.624 322.053L406.68 322.037V320.357L411.016 313.509H413.8V320.357H415.192V322.053H413.8V324.709H411.624V322.053ZM411.64 320.325V316.117L408.904 320.325H411.64ZM427.348 313.509H429.572V324.709H427.348V319.957H422.756V324.709H420.532V313.509H422.756V318.213H427.348V313.509ZM436.271 324.837C435.173 324.837 434.234 324.586 433.455 324.085C432.687 323.573 432.106 322.885 431.711 322.021C431.327 321.146 431.135 320.176 431.135 319.109C431.135 318.032 431.333 317.056 431.727 316.181C432.122 315.296 432.703 314.592 433.471 314.069C434.25 313.546 435.183 313.285 436.271 313.285C437.359 313.285 438.287 313.546 439.055 314.069C439.823 314.581 440.405 315.28 440.799 316.165C441.194 317.04 441.391 318.021 441.391 319.109C441.391 320.186 441.194 321.162 440.799 322.037C440.405 322.901 439.818 323.584 439.039 324.085C438.271 324.586 437.349 324.837 436.271 324.837ZM436.271 322.853C437.146 322.853 437.823 322.501 438.303 321.797C438.783 321.082 439.023 320.176 439.023 319.077C439.023 318.373 438.917 317.733 438.703 317.157C438.501 316.581 438.191 316.122 437.775 315.781C437.359 315.44 436.858 315.269 436.271 315.269C435.685 315.269 435.178 315.445 434.751 315.797C434.335 316.138 434.021 316.597 433.807 317.173C433.594 317.749 433.487 318.389 433.487 319.093C433.487 320.17 433.727 321.066 434.207 321.781C434.698 322.496 435.386 322.853 436.271 322.853ZM446.681 320.645H445.209V324.709H443.001V313.509H447.145C448.041 313.509 448.793 313.68 449.401 314.021C450.009 314.362 450.457 314.805 450.745 315.349C451.033 315.893 451.177 316.485 451.177 317.125C451.177 317.861 450.985 318.528 450.601 319.125C450.217 319.712 449.636 320.133 448.857 320.389L451.385 324.709H449.065L446.681 320.645ZM445.209 318.837H446.809C447.428 318.837 447.95 318.709 448.377 318.453C448.814 318.186 449.033 317.744 449.033 317.125C449.033 316.506 448.82 316.074 448.393 315.829C447.966 315.573 447.438 315.445 446.809 315.445H445.209V318.837ZM459.392 324.709L458.48 321.957H454.64L453.744 324.709H451.504L455.536 313.509H457.616L461.632 324.709H459.392ZM455.2 320.245H457.92L456.592 316.261H456.496L455.2 320.245ZM466.518 324.853C465.622 324.853 464.848 324.677 464.198 324.325C463.558 323.962 463.072 323.498 462.742 322.933C462.411 322.368 462.246 321.77 462.246 321.141V321.045H464.678V321.141C464.678 321.408 464.742 321.68 464.87 321.957C465.008 322.224 465.216 322.448 465.494 322.629C465.782 322.81 466.134 322.901 466.55 322.901C467.072 322.901 467.494 322.768 467.814 322.501C468.144 322.234 468.31 321.877 468.31 321.429C468.31 321.045 468.171 320.741 467.894 320.517C467.627 320.282 467.296 320.128 466.902 320.053L465.542 319.765C464.838 319.626 464.16 319.328 463.51 318.869C462.859 318.4 462.534 317.637 462.534 316.581C462.534 315.898 462.699 315.312 463.03 314.821C463.36 314.32 463.819 313.941 464.406 313.685C464.992 313.418 465.659 313.285 466.406 313.285C467.259 313.285 467.99 313.45 468.598 313.781C469.216 314.112 469.68 314.538 469.99 315.061C470.31 315.584 470.47 316.138 470.47 316.725V316.789H468.038V316.741C468.038 316.357 467.899 316 467.622 315.669C467.355 315.328 466.923 315.157 466.326 315.157C465.835 315.157 465.451 315.29 465.174 315.557C464.896 315.813 464.758 316.144 464.758 316.549C464.758 316.933 464.896 317.237 465.174 317.461C465.462 317.685 465.814 317.84 466.23 317.925L467.574 318.213C468.395 318.394 469.11 318.73 469.718 319.221C470.326 319.712 470.63 320.432 470.63 321.381C470.63 322.064 470.454 322.672 470.102 323.205C469.75 323.728 469.259 324.133 468.63 324.421C468.011 324.709 467.307 324.853 466.518 324.853Z" fill="white"/>
  <path d="M373.11 302.564L372.198 299.812H368.358L367.462 302.564H365.222L369.254 291.364H371.334L375.35 302.564H373.11ZM368.918 298.1H371.638L370.31 294.116H370.214L368.918 298.1ZM376.563 291.364H379.139L383.715 299.14H383.747V291.364H385.955V302.58H383.363L378.819 295.028H378.771V302.58H376.563V291.364ZM395.126 302.564L394.214 299.812H390.374L389.478 302.564H387.238L391.27 291.364H393.35L397.366 302.564H395.126ZM390.934 298.1H393.654L392.326 294.116H392.23L390.934 298.1ZM391.414 290.148L393.03 287.028H395.222L393.174 290.164L391.414 290.148ZM400.803 300.628H405.667V302.564H398.595L398.579 291.364H400.819L400.803 300.628ZM407.222 291.364H409.462V302.564H407.222V291.364ZM415.752 302.708C414.856 302.708 414.083 302.532 413.432 302.18C412.792 301.817 412.307 301.353 411.976 300.788C411.645 300.222 411.48 299.625 411.48 298.996V298.9H413.912V298.996C413.912 299.262 413.976 299.534 414.104 299.812C414.243 300.078 414.451 300.302 414.728 300.484C415.016 300.665 415.368 300.756 415.784 300.756C416.307 300.756 416.728 300.622 417.048 300.356C417.379 300.089 417.544 299.732 417.544 299.284C417.544 298.9 417.405 298.596 417.128 298.372C416.861 298.137 416.531 297.982 416.136 297.908L414.776 297.62C414.072 297.481 413.395 297.182 412.744 296.724C412.093 296.254 411.768 295.492 411.768 294.436C411.768 293.753 411.933 293.166 412.264 292.676C412.595 292.174 413.053 291.796 413.64 291.54C414.227 291.273 414.893 291.14 415.64 291.14C416.493 291.14 417.224 291.305 417.832 291.636C418.451 291.966 418.915 292.393 419.224 292.916C419.544 293.438 419.704 293.993 419.704 294.58V294.644H417.272V294.596C417.272 294.212 417.133 293.854 416.856 293.524C416.589 293.182 416.157 293.012 415.56 293.012C415.069 293.012 414.685 293.145 414.408 293.412C414.131 293.668 413.992 293.998 413.992 294.404C413.992 294.788 414.131 295.092 414.408 295.316C414.696 295.54 415.048 295.694 415.464 295.78L416.808 296.068C417.629 296.249 418.344 296.585 418.952 297.076C419.56 297.566 419.864 298.286 419.864 299.236C419.864 299.918 419.688 300.526 419.336 301.06C418.984 301.582 418.493 301.988 417.864 302.276C417.245 302.564 416.541 302.708 415.752 302.708ZM428.894 293.3H423.71V296.004H428.11V297.748H423.71V300.628H428.894V302.564H421.486V291.364H428.894V293.3ZM441.659 293.3H436.475V296.004H440.875V297.748H436.475V300.628H441.659V302.564H434.251V291.364H441.659V293.3ZM443.313 291.364H446.609L449.089 298.26H449.137L451.617 291.364H454.913V302.564H452.737V294.532H452.657L449.841 302.564H448.401L445.569 294.532H445.489V302.564H443.313V291.364Z" fill="white"/>
  <rect x="430" y="143" width="142" height="91" rx="12" fill="#6EC4CB" stroke="white" stroke-width="6"/>
  <path d="M449.877 162H458.165V163.936H455.125V173.2H452.917V163.936H449.877V162ZM458.044 173.2L462.076 162H464.156L468.172 173.2H465.932L465.02 170.448H461.18L460.284 173.2H458.044ZM464.46 168.736L463.132 164.752H463.036L461.74 168.736H464.46ZM472.553 167.6L468.921 162H471.337L473.849 166.048H473.945L476.457 162H478.889L475.225 167.6L478.905 173.2H476.457L473.945 169.152H473.849L471.337 173.2H468.905L472.553 167.6ZM479.638 173.2L483.67 162H485.75L489.766 173.2H487.526L486.614 170.448H482.774L481.878 173.2H479.638ZM486.054 168.736L484.726 164.752H484.63L483.334 168.736H486.054ZM490.754 169.632V169.536H493.186V169.632C493.186 169.899 493.25 170.171 493.378 170.448C493.517 170.715 493.725 170.939 494.002 171.12C494.29 171.301 494.642 171.392 495.058 171.392C495.581 171.392 496.002 171.259 496.322 170.992C496.653 170.725 496.818 170.368 496.818 169.92C496.818 169.536 496.68 169.232 496.402 169.008C496.136 168.773 495.805 168.619 495.41 168.544L494.05 168.256C493.346 168.117 492.669 167.819 492.018 167.36C491.368 166.891 491.042 166.128 491.042 165.072C491.042 164.389 491.208 163.803 491.538 163.312C491.869 162.811 492.328 162.432 492.914 162.176C493.501 161.909 494.168 161.776 494.914 161.776C495.768 161.776 496.498 161.941 497.106 162.272C497.725 162.603 498.189 163.029 498.498 163.552C498.818 164.075 498.978 164.629 498.978 165.216V165.28H496.546V165.232C496.546 164.848 496.408 164.491 496.13 164.16C495.864 163.819 495.432 163.648 494.834 163.648C494.344 163.648 493.96 163.781 493.682 164.048C493.405 164.304 493.266 164.635 493.266 165.04C493.266 165.424 493.405 165.728 493.682 165.952C493.97 166.176 494.322 166.331 494.738 166.416L496.082 166.704C496.904 166.885 497.618 167.221 498.226 167.712C498.834 168.203 499.138 168.923 499.138 169.872C499.138 170.555 498.962 171.163 498.61 171.696C498.258 172.219 497.768 172.624 497.138 172.912C496.52 173.2 495.816 173.344 495.026 173.344C494.13 173.344 493.357 173.168 492.706 172.816C492.066 172.453 491.581 171.989 491.25 171.424C490.92 170.859 490.754 170.261 490.754 169.632ZM449.653 192.2L453.685 181H455.765L459.781 192.2H457.541L456.629 189.448H452.789L451.893 192.2H449.653ZM456.069 187.736L454.741 183.752H454.645L453.349 187.736H456.069ZM464.682 181H468.826C469.722 181 470.474 181.181 471.082 181.544C471.69 181.907 472.138 182.381 472.426 182.968C472.714 183.555 472.858 184.184 472.858 184.856C472.858 185.528 472.714 186.152 472.426 186.728C472.148 187.293 471.706 187.752 471.098 188.104C470.49 188.456 469.732 188.632 468.826 188.632H466.858V192.2H464.682V181ZM466.858 186.808H468.49C469.119 186.808 469.647 186.659 470.074 186.36C470.5 186.061 470.714 185.56 470.714 184.856C470.714 184.152 470.5 183.661 470.074 183.384C469.658 183.096 469.13 182.952 468.49 182.952H466.858V186.808ZM472.809 192.2L476.841 181H478.921L482.937 192.2H480.697L479.785 189.448H475.945L475.049 192.2H472.809ZM479.225 187.736L477.897 183.752H477.801L476.505 187.736H479.225ZM488.294 181C489.19 181 489.942 181.171 490.55 181.512C491.158 181.853 491.606 182.296 491.894 182.84C492.182 183.384 492.326 183.976 492.326 184.616C492.326 185.352 492.134 186.019 491.75 186.616C491.366 187.203 490.785 187.624 490.006 187.88L492.534 192.2H490.214L487.83 188.136H486.358V192.2H484.15V181H488.294ZM487.958 186.328C488.577 186.328 489.1 186.2 489.526 185.944C489.964 185.677 490.182 185.235 490.182 184.616C490.182 183.997 489.969 183.565 489.542 183.32C489.116 183.064 488.588 182.936 487.958 182.936H486.358V186.328H487.958ZM493.565 181H501.853V182.936H498.813V192.2H496.605V182.936H493.565V181ZM503.419 181H505.659V192.2H503.419V181ZM511.857 181C512.753 181 513.505 181.171 514.113 181.512C514.721 181.853 515.169 182.296 515.457 182.84C515.745 183.384 515.889 183.976 515.889 184.616C515.889 185.352 515.697 186.019 515.313 186.616C514.929 187.203 514.347 187.624 513.569 187.88L516.097 192.2H513.777L511.393 188.136H509.921V192.2H507.713V181H511.857ZM511.521 186.328C512.139 186.328 512.662 186.2 513.089 185.944C513.526 185.677 513.745 185.235 513.745 184.616C513.745 183.997 513.531 183.565 513.105 183.32C512.678 183.064 512.15 182.936 511.521 182.936H509.921V186.328H511.521ZM521.135 180.984H525.487C526.479 180.984 527.353 181.208 528.111 181.656C528.868 182.093 529.455 182.733 529.871 183.576C530.297 184.419 530.511 185.421 530.511 186.584C530.511 187.747 530.297 188.749 529.871 189.592C529.444 190.435 528.847 191.08 528.079 191.528C527.321 191.965 526.447 192.184 525.455 192.184H521.135V180.984ZM525.055 190.2C526.004 190.2 526.756 189.917 527.311 189.352C527.865 188.787 528.143 187.859 528.143 186.568C528.143 185.277 527.865 184.355 527.311 183.8C526.756 183.235 526.004 182.952 525.055 182.952H523.295V190.2H525.055ZM532.01 181H539.418V182.936H534.234V185.64H538.634V187.384H534.234V190.264H539.418V192.2H532.01V181Z" fill="white"/>
  <path d="M450.536 213.808L454.84 204.928V204.816H449.32V202.8H456.936V205.056L452.872 214H450.536V213.808ZM458.878 212.24C459.102 212.005 459.433 211.888 459.87 211.888C460.414 211.888 460.793 212.043 461.006 212.352C461.22 212.661 461.326 213.035 461.326 213.472V214.176C461.326 214.944 461.134 215.552 460.75 216C460.366 216.448 459.833 216.757 459.15 216.928V216.208C459.886 215.92 460.254 215.477 460.254 214.88C460.254 214.581 460.19 214.389 460.062 214.304C459.945 214.229 459.764 214.187 459.518 214.176C459.145 214.165 458.884 214.053 458.734 213.84C458.596 213.627 458.526 213.397 458.526 213.152C458.526 212.789 458.644 212.485 458.878 212.24ZM465.348 210.8C465.465 211.237 465.689 211.579 466.02 211.824C466.351 212.069 466.772 212.192 467.284 212.192C467.871 212.192 468.324 212.043 468.644 211.744C468.975 211.435 469.14 211.045 469.14 210.576C469.14 210.075 468.964 209.685 468.612 209.408C468.271 209.12 467.833 208.976 467.3 208.976H466.292V207.296H467.316C467.796 207.296 468.191 207.173 468.5 206.928C468.809 206.672 468.964 206.315 468.964 205.856C468.964 205.397 468.804 205.029 468.484 204.752C468.175 204.475 467.764 204.336 467.252 204.336C466.761 204.336 466.367 204.459 466.068 204.704C465.78 204.949 465.593 205.285 465.508 205.712H463.332C463.471 204.805 463.855 204.048 464.484 203.44C465.113 202.821 466.041 202.512 467.268 202.512C468.164 202.512 468.905 202.677 469.492 203.008C470.079 203.328 470.5 203.739 470.756 204.24C471.023 204.741 471.156 205.253 471.156 205.776C471.156 206.309 471.028 206.752 470.772 207.104C470.527 207.456 470.26 207.717 469.972 207.888C469.695 208.059 469.519 208.144 469.444 208.144V208.24C469.668 208.315 469.897 208.416 470.132 208.544C470.367 208.661 470.617 208.907 470.884 209.28C471.151 209.653 471.284 210.155 471.284 210.784C471.284 211.381 471.14 211.936 470.852 212.448C470.564 212.96 470.121 213.371 469.524 213.68C468.927 213.989 468.185 214.144 467.3 214.144C466.02 214.144 465.033 213.829 464.34 213.2C463.647 212.571 463.236 211.771 463.108 210.8H465.348ZM474.607 214L480.383 202.8H482.223L476.447 214H474.607ZM473.199 203.312C473.551 202.864 474.095 202.64 474.831 202.64C475.567 202.64 476.101 202.864 476.431 203.312C476.773 203.76 476.943 204.304 476.943 204.944C476.943 205.584 476.773 206.133 476.431 206.592C476.101 207.04 475.567 207.264 474.831 207.264C474.095 207.264 473.551 207.035 473.199 206.576C472.847 206.117 472.671 205.573 472.671 204.944C472.671 204.315 472.847 203.771 473.199 203.312ZM479.887 211.84C479.887 211.221 480.063 210.683 480.415 210.224C480.778 209.765 481.322 209.536 482.047 209.536C482.783 209.536 483.317 209.765 483.647 210.224C483.989 210.672 484.159 211.211 484.159 211.84C484.159 212.469 483.989 213.013 483.647 213.472C483.317 213.931 482.783 214.16 482.047 214.16C481.322 214.16 480.778 213.931 480.415 213.472C480.063 213.003 479.887 212.459 479.887 211.84ZM474.175 204.944C474.175 205.648 474.405 206 474.863 206C475.322 206 475.551 205.648 475.551 204.944C475.551 204.24 475.322 203.888 474.863 203.888C474.405 203.888 474.175 204.24 474.175 204.944ZM481.407 211.84C481.407 212.544 481.637 212.896 482.095 212.896C482.554 212.896 482.783 212.544 482.783 211.84C482.783 211.136 482.554 210.784 482.095 210.784C481.637 210.784 481.407 211.136 481.407 211.84ZM488.852 214L492.884 202.8H494.964L498.98 214H496.74L495.828 211.248H491.988L491.092 214H488.852ZM495.268 209.536L493.94 205.552H493.844L492.548 209.536H495.268ZM499.937 208.4C499.937 207.323 500.135 206.347 500.529 205.472C500.924 204.587 501.505 203.883 502.273 203.36C503.052 202.837 503.985 202.576 505.073 202.576C506.161 202.576 507.089 202.837 507.857 203.36C508.625 203.872 509.207 204.571 509.601 205.456C509.996 206.331 510.193 207.312 510.193 208.4C510.193 209.477 509.996 210.453 509.601 211.328C509.207 212.192 508.62 212.875 507.841 213.376C507.073 213.877 506.151 214.128 505.073 214.128C503.975 214.128 503.036 213.877 502.257 213.376C501.489 212.864 500.908 212.176 500.513 211.312C500.129 210.437 499.937 209.467 499.937 208.4ZM502.289 208.384C502.289 209.461 502.529 210.357 503.009 211.072C503.5 211.787 504.188 212.144 505.073 212.144C505.948 212.144 506.625 211.792 507.105 211.088C507.585 210.373 507.825 209.467 507.825 208.368C507.825 207.664 507.719 207.024 507.505 206.448C507.303 205.872 506.993 205.413 506.577 205.072C506.161 204.731 505.66 204.56 505.073 204.56C504.487 204.56 503.98 204.736 503.553 205.088C503.137 205.429 502.823 205.888 502.609 206.464C502.396 207.04 502.289 207.68 502.289 208.384ZM514.946 214L518.978 202.8H521.058L525.074 214H522.834L521.922 211.248H518.082L517.186 214H514.946ZM521.362 209.536L520.034 205.552H519.938L518.642 209.536H521.362ZM526.287 214.016V202.8H528.863L533.439 210.576H533.471V202.8H535.679V214.016H533.087L528.543 206.464H528.495V214.016H526.287ZM537.25 208.4C537.25 207.323 537.447 206.347 537.842 205.472C538.236 204.587 538.818 203.883 539.586 203.36C540.364 202.837 541.298 202.576 542.386 202.576C543.474 202.576 544.402 202.837 545.17 203.36C545.938 203.872 546.519 204.571 546.914 205.456C547.308 206.331 547.506 207.312 547.506 208.4C547.506 209.477 547.308 210.453 546.914 211.328C546.519 212.192 545.932 212.875 545.154 213.376C544.386 213.877 543.463 214.128 542.386 214.128C541.287 214.128 540.348 213.877 539.57 213.376C538.802 212.864 538.22 212.176 537.826 211.312C537.442 210.437 537.25 209.467 537.25 208.4ZM539.602 208.384C539.602 209.461 539.842 210.357 540.322 211.072C540.812 211.787 541.5 212.144 542.386 212.144C543.26 212.144 543.938 211.792 544.418 211.088C544.898 210.373 545.138 209.467 545.138 208.368C545.138 207.664 545.031 207.024 544.818 206.448C544.615 205.872 544.306 205.413 543.89 205.072C543.474 204.731 542.972 204.56 542.386 204.56C541.799 204.56 541.292 204.736 540.866 205.088C540.45 205.429 540.135 205.888 539.922 206.464C539.708 207.04 539.602 207.68 539.602 208.384Z" fill="white"/>
</svg>
